<svg version="1.1" id="Layer_1" xmlns="http://www.w3.org/2000/svg" xmlns:xlink="http://www.w3.org/1999/xlink" x="0px" y="0px"
	 width="100%" viewBox="0 0 512 512" enable-background="new 0 0 512 512" xml:space="preserve">
<path fill="#FFFFFF" opacity="1.000000" stroke="none" 
	d="
M306.000000,513.000000 
	C204.024765,513.000000 102.549522,513.000000 1.037143,513.000000 
	C1.037143,342.399750 1.037143,171.799469 1.037143,1.099597 
	C171.558578,1.099597 342.117249,1.099597 512.837952,1.099597 
	C512.837952,171.666550 512.837952,342.333252 512.837952,513.000000 
	C444.132782,513.000000 375.316376,513.000000 306.000000,513.000000 
M438.103027,250.075714 
	C438.054657,238.384476 438.006287,226.693253 438.111298,214.075470 
	C438.079773,209.946701 438.298584,205.797882 437.969635,201.692947 
	C437.001495,189.612686 434.423462,177.990295 427.254547,167.090790 
	C426.430603,165.486710 425.713989,163.816025 424.766205,162.288803 
	C414.567963,145.856155 399.310822,135.687546 381.677917,127.411469 
	C353.384369,111.291336 325.211975,94.953308 296.752960,79.130768 
	C278.970245,69.243996 259.770782,66.796463 239.802597,70.710014 
	C221.279999,74.340256 205.940704,84.820160 189.304520,94.127953 
	C183.284927,97.562523 177.247559,100.966377 171.249573,104.438278 
	C160.089157,110.898415 148.951706,117.398209 137.122375,124.017006 
	C130.194824,127.968414 123.161491,131.746918 116.361534,135.906906 
	C101.809120,144.809586 90.764328,156.902725 83.313782,173.109543 
	C77.420044,185.718903 74.334900,198.880524 75.383324,213.824020 
	C75.431328,223.270889 75.581505,232.718597 75.502434,242.164398 
	C75.394356,255.075516 75.111877,267.985168 74.123528,280.879822 
	C72.406792,281.228821 70.690063,281.577850 68.455399,281.883392 
	C68.299606,281.959137 68.143806,282.034912 67.484550,282.079102 
	C67.345078,282.173004 67.205597,282.266937 66.414955,282.511719 
	C55.334618,288.006226 51.790314,297.929474 56.890900,309.959930 
	C61.120468,321.832550 65.286957,333.728149 69.595604,345.571991 
	C74.965958,360.334381 80.090973,363.908661 96.130463,364.736664 
	C103.864052,370.423065 111.179512,376.818512 119.405563,381.669861 
	C150.512939,400.015442 181.887985,417.908447 213.218475,435.873871 
	C232.137146,446.722137 252.285477,450.362244 273.832031,446.031372 
	C286.837646,443.417236 298.013702,436.952667 309.227051,430.361938 
	C335.767914,414.762390 362.396515,399.312164 389.656067,383.657562 
	C399.305756,377.850739 409.875153,373.325500 417.613922,363.824341 
	C417.779297,363.694885 417.944641,363.565430 418.482178,363.484619 
	C418.482178,363.484619 418.758423,363.230499 419.552643,363.498505 
	C423.033386,363.269012 426.514130,363.039520 430.700806,362.813354 
	C436.474396,360.835327 440.887024,357.226410 443.031738,351.463165 
	C446.019684,343.434052 448.671906,335.280029 451.890289,326.625275 
	C454.073975,320.561707 456.324066,314.521057 458.427795,308.429901 
	C463.089325,294.932953 454.907990,282.257172 440.732269,280.860229 
	C439.799927,280.768372 438.904144,280.305481 438.136810,279.084106 
	C438.073914,269.723633 438.011017,260.363129 438.103027,250.075714 
z"/>
<path fill="#24B4EA" opacity="1.000000" stroke="none" 
	d="
M388.989655,383.801575 
	C362.396515,399.312164 335.767914,414.762390 309.227051,430.361938 
	C298.013702,436.952667 286.837646,443.417236 273.832031,446.031372 
	C252.285477,450.362244 232.137146,446.722137 213.218475,435.873871 
	C181.887985,417.908447 150.512939,400.015442 119.405563,381.669861 
	C111.179512,376.818512 103.864052,370.423065 96.447937,364.393280 
	C103.268951,364.082397 109.772491,364.114868 116.417747,364.428284 
	C121.135284,367.411530 125.683640,370.161652 130.291412,372.808350 
	C158.981186,389.287903 187.365753,406.334686 216.474442,422.038727 
	C244.396484,437.102661 272.691895,435.436035 300.252899,420.033844 
	C306.928497,416.303253 313.471802,412.336761 320.106934,408.532867 
	C339.717438,397.290253 359.343506,386.074799 379.101196,375.166077 
	C382.489166,378.256134 385.739410,381.028870 388.989655,383.801575 
z"/>
<path fill="#3BE1D6" opacity="1.000000" stroke="none" 
	d="
M189.990189,93.975800 
	C205.940704,84.820160 221.279999,74.340256 239.802597,70.710014 
	C259.770782,66.796463 278.970245,69.243996 296.752960,79.130768 
	C325.211975,94.953308 353.384369,111.291336 381.576202,127.837471 
	C379.133148,133.133881 375.675262,136.281281 369.560425,135.721588 
	C359.369446,130.147964 349.442963,124.704330 339.594116,119.123665 
	C325.106842,110.914711 310.943756,102.087769 296.163147,94.452133 
	C266.211761,78.979332 236.806580,81.734558 208.192627,98.593124 
	C203.218521,101.523727 198.066879,104.153015 192.998322,106.520981 
	C193.941010,104.277031 194.845840,102.413452 195.838669,100.598000 
	C196.392639,99.585014 197.092896,98.652023 197.727219,97.682976 
	C196.496658,97.284035 195.201309,97.017021 194.052048,96.452545 
	C192.634567,95.756332 191.338638,94.812584 189.990189,93.975800 
z"/>
<path fill="#0EB8BF" opacity="1.000000" stroke="none" 
	d="
M437.991364,280.015198 
	C438.904144,280.305481 439.799927,280.768372 440.732269,280.860229 
	C454.907990,282.257172 463.089325,294.932953 458.427795,308.429901 
	C456.324066,314.521057 454.073975,320.561707 451.332611,326.764893 
	C447.904175,323.837463 444.374512,321.157196 442.299683,317.622894 
	C437.967255,310.242859 428.759247,310.096405 423.353760,303.959839 
	C413.662262,297.271973 403.155518,301.374634 392.875214,299.987701 
	C392.631714,304.419342 392.424072,308.198883 391.797119,311.983612 
	C388.238800,311.324280 385.099823,310.659760 381.866943,309.550964 
	C381.773071,306.241882 381.773071,303.377014 381.773071,300.366730 
	C379.828583,300.180084 378.412811,300.044159 376.990784,299.522705 
	C374.906403,291.185822 374.884338,291.394287 366.591705,290.515991 
	C364.480286,290.292358 362.064758,288.696350 360.660370,287.006622 
	C358.385620,284.269745 356.513641,283.315094 353.084778,285.168304 
	C348.721222,287.526703 346.059387,285.932892 345.469727,280.980530 
	C353.628418,280.946899 361.318665,280.917084 369.476257,280.912231 
	C387.171753,280.817841 404.399811,280.698486 421.934265,280.635498 
	C423.402161,280.407715 424.563690,280.123566 426.168213,279.893127 
	C430.404602,279.969635 434.197968,279.992401 437.991364,280.015198 
z"/>
<path fill="#059DC6" opacity="1.000000" stroke="none" 
	d="
M116.276031,364.147339 
	C109.772491,364.114868 103.268951,364.082397 96.286957,364.098877 
	C80.090973,363.908661 74.965958,360.334381 69.595604,345.571991 
	C65.286957,333.728149 61.120468,321.832550 57.107201,309.265503 
	C62.639809,305.903290 67.474419,307.432587 71.207489,311.628387 
	C74.603340,315.445129 78.007828,319.878143 84.060242,320.435272 
	C84.126793,332.576324 88.865852,340.445099 98.244156,344.323303 
	C106.982895,347.937103 116.022720,345.674377 123.848389,338.005920 
	C126.759941,338.671600 129.307800,339.336853 131.927185,340.441071 
	C132.121979,342.247192 132.245255,343.614288 132.394409,345.268250 
	C136.905380,345.268250 140.952271,345.268250 144.997833,345.653992 
	C144.406799,347.285828 144.152939,349.038452 143.169403,349.690521 
	C138.865784,352.543854 141.256607,356.557770 141.570435,359.907257 
	C141.649567,360.751740 145.736542,361.178375 147.956512,361.877136 
	C149.988312,362.516693 151.986038,363.264496 153.530396,363.978333 
	C142.966660,364.042389 132.871307,364.092621 122.369904,364.093933 
	C120.067917,364.079102 118.171974,364.113220 116.276031,364.147339 
z"/>
<path fill="#0AA7C7" opacity="1.000000" stroke="none" 
	d="
M68.973328,281.926819 
	C70.690063,281.577850 72.406792,281.228821 74.984131,280.930115 
	C80.022827,280.878021 84.200920,280.775665 88.710739,280.704529 
	C89.927765,280.751312 90.813057,280.766846 92.184174,280.843079 
	C104.780609,280.937469 116.891220,280.971161 129.001251,281.443207 
	C129.302521,285.652405 127.052467,291.193878 133.374008,289.861603 
	C133.957001,293.513367 134.479477,296.786163 134.642578,300.150696 
	C133.482574,301.495758 132.681961,302.749054 131.443848,304.001282 
	C127.303802,303.850983 123.601242,303.701813 119.605194,303.436035 
	C110.214989,298.285950 101.314758,298.585144 92.227448,304.215881 
	C89.674469,302.699738 87.491409,301.295593 85.346573,299.835266 
	C83.058472,298.277405 80.902252,296.500641 78.513908,295.121765 
	C75.689339,293.491028 72.692818,292.152832 69.744354,290.743195 
	C64.475060,288.223969 69.522446,284.837769 68.973328,281.926819 
z"/>
<path fill="#04ACBF" opacity="1.000000" stroke="none" 
	d="
M381.960815,309.995239 
	C385.099823,310.659760 388.238800,311.324280 391.885590,312.447510 
	C392.393372,323.464355 392.393372,334.022491 392.393372,344.804321 
	C401.402710,344.804321 409.515686,344.804321 417.966492,344.961731 
	C420.134003,346.203796 421.971283,347.275909 423.790833,348.377289 
	C425.135468,349.191223 427.302460,349.794403 427.635101,350.923798 
	C428.771606,354.782837 429.259521,358.832855 429.994873,362.810028 
	C426.514130,363.039520 423.033386,363.269012 419.065582,363.340942 
	C418.380005,363.183716 418.223816,363.267944 418.110016,363.436005 
	C417.944641,363.565430 417.779297,363.694885 416.846405,363.900330 
	C409.722534,363.985016 403.366211,363.993744 396.631592,363.927307 
	C395.511414,363.665741 394.769501,363.479370 394.015137,362.964661 
	C393.888397,361.990753 394.004547,361.114471 393.624542,360.735046 
	C389.386353,356.502991 382.649750,354.593170 381.440765,347.533783 
	C381.407013,347.336792 380.914825,347.159637 380.608459,347.076965 
	C377.079681,346.125244 376.917328,343.277557 376.963623,340.099823 
	C378.494385,336.500458 380.667450,333.289612 381.093201,329.861694 
	C381.907593,323.304779 381.727936,316.624359 381.960815,309.995239 
z"/>
<path fill="#34D3DB" opacity="1.000000" stroke="none" 
	d="
M83.862770,172.620331 
	C90.764328,156.902725 101.809120,144.809586 116.361534,135.906906 
	C123.161491,131.746918 130.194824,127.968414 137.752792,124.157211 
	C137.796951,126.091881 137.210678,127.886345 136.292435,130.696991 
	C138.108505,131.887268 140.572784,133.502396 142.910004,135.435455 
	C141.548721,136.570251 140.315170,137.388107 139.080154,138.203812 
	C130.643768,143.775818 121.787415,148.815460 113.878349,155.055740 
	C104.315804,162.600616 98.729485,173.379028 92.967316,184.085693 
	C85.070190,183.733536 85.909019,177.079224 83.862770,172.620331 
z"/>
<path fill="#09B2BF" opacity="1.000000" stroke="none" 
	d="
M430.347839,362.811707 
	C429.259521,358.832855 428.771606,354.782837 427.635101,350.923798 
	C427.302460,349.794403 425.135468,349.191223 423.790833,348.377289 
	C421.971283,347.275909 420.134003,346.203796 418.238098,344.719849 
	C423.285553,342.815552 427.092926,339.993927 427.853455,334.326233 
	C428.732452,327.775452 424.933289,324.081421 419.396210,321.524353 
	C426.591705,316.896027 427.755859,311.845917 423.658325,304.113312 
	C428.759247,310.096405 437.967255,310.242859 442.299683,317.622894 
	C444.374512,321.157196 447.904175,323.837463 451.121368,327.041992 
	C448.671906,335.280029 446.019684,343.434052 443.031738,351.463165 
	C440.887024,357.226410 436.474396,360.835327 430.347839,362.811707 
z"/>
<path fill="#37DFD7" opacity="1.000000" stroke="none" 
	d="
M369.859589,135.790283 
	C375.675262,136.281281 379.133148,133.133881 381.792358,128.101898 
	C399.310822,135.687546 414.567963,145.856155 424.766205,162.288803 
	C425.713989,163.816025 426.430603,165.486710 426.945984,167.715714 
	C426.250549,170.385757 425.863678,172.430878 425.477448,174.472809 
	C421.370026,175.830627 418.406952,174.774490 416.010956,171.256744 
	C415.248352,170.137146 413.433197,169.734436 411.898743,168.730408 
	C404.457489,158.816498 395.998810,150.609024 385.171844,144.954422 
	C379.908142,142.205322 374.953918,138.863678 369.859589,135.790283 
z"/>
<path fill="#38DBDA" opacity="1.000000" stroke="none" 
	d="
M143.037048,135.117493 
	C140.572784,133.502396 138.108505,131.887268 136.292435,130.696991 
	C137.210678,127.886345 137.796951,126.091881 138.093964,124.089455 
	C148.951706,117.398209 160.089157,110.898415 171.249573,104.438278 
	C177.247559,100.966377 183.284927,97.562523 189.647354,94.051880 
	C191.338638,94.812584 192.634567,95.756332 194.052048,96.452545 
	C195.201309,97.017021 196.496658,97.284035 197.727219,97.682976 
	C197.092896,98.652023 196.392639,99.585014 195.838669,100.598000 
	C194.845840,102.413452 193.941010,104.277031 192.670288,106.673248 
	C190.593018,108.022339 188.746170,108.655151 187.112564,109.641243 
	C175.656891,116.556183 164.285980,123.612434 152.792389,130.463089 
	C149.710678,132.299911 146.297852,133.581192 143.037048,135.117493 
z"/>
<path fill="#27BEE8" opacity="1.000000" stroke="none" 
	d="
M88.379005,280.673279 
	C84.200920,280.775665 80.022827,280.878021 75.374451,280.937927 
	C75.111877,267.985168 75.394356,255.075516 75.502434,242.164398 
	C75.581505,232.718597 75.431328,223.270889 75.882332,213.441010 
	C76.921646,215.620163 77.795174,218.165405 77.926537,220.748383 
	C78.139679,224.939484 79.339912,228.400665 82.760796,230.770737 
	C84.672585,229.388351 86.319725,228.197342 88.029907,227.470917 
	C88.188301,245.514771 88.283653,263.094025 88.379005,280.673279 
z"/>
<path fill="#09A2C9" opacity="1.000000" stroke="none" 
	d="
M68.714363,281.905090 
	C69.522446,284.837769 64.475060,288.223969 69.744354,290.743195 
	C72.692818,292.152832 75.689339,293.491028 78.513908,295.121765 
	C80.902252,296.500641 83.058472,298.277405 85.346573,299.835266 
	C87.491409,301.295593 89.674469,302.699738 92.000443,304.488159 
	C87.208611,308.695496 85.502991,314.291870 83.999367,319.997070 
	C78.007828,319.878143 74.603340,315.445129 71.207489,311.628387 
	C67.474419,307.432587 62.639809,305.903290 57.101746,308.889221 
	C51.790314,297.929474 55.334618,288.006226 66.858047,282.544647 
	C67.654251,282.642700 67.883202,282.487091 67.987999,282.110718 
	C68.143806,282.034912 68.299606,281.959137 68.714363,281.905090 
z"/>
<path fill="#31D7D7" opacity="1.000000" stroke="none" 
	d="
M412.099701,169.003677 
	C413.433197,169.734436 415.248352,170.137146 416.010956,171.256744 
	C418.406952,174.774490 421.370026,175.830627 425.477448,174.472809 
	C425.863678,172.430878 426.250549,170.385757 426.971863,168.082077 
	C434.423462,177.990295 437.001495,189.612686 437.969635,201.692947 
	C438.298584,205.797882 438.079773,209.946701 437.670471,214.581512 
	C435.709900,217.139084 434.190186,219.190598 432.092468,222.022308 
	C431.491760,221.017029 430.716980,219.786545 430.007660,218.519424 
	C428.609192,216.021118 427.246948,213.502502 425.790833,210.589142 
	C424.856995,195.241364 419.911835,181.648697 412.099701,169.003677 
z"/>
<path fill="#36C9E3" opacity="1.000000" stroke="none" 
	d="
M87.966866,227.006317 
	C86.319725,228.197342 84.672585,229.388351 82.760796,230.770737 
	C79.339912,228.400665 78.139679,224.939484 77.926537,220.748383 
	C77.795174,218.165405 76.921646,215.620163 75.937698,212.967361 
	C74.334900,198.880524 77.420044,185.718903 83.588272,172.864929 
	C85.909019,177.079224 85.070190,183.733536 92.905815,184.481171 
	C88.632126,198.584946 87.745438,212.726074 87.966866,227.006317 
z"/>
<path fill="#2BCEDA" opacity="1.000000" stroke="none" 
	d="
M425.869751,210.992279 
	C427.246948,213.502502 428.609192,216.021118 430.007660,218.519424 
	C430.716980,219.786545 431.491760,221.017029 432.092468,222.022308 
	C434.190186,219.190598 435.709900,217.139084 437.593750,215.044800 
	C438.006287,226.693253 438.054657,238.384476 437.671570,250.604324 
	C436.830017,251.604980 436.415497,252.073257 436.010773,252.549805 
	C434.785828,253.992157 433.564667,255.437698 432.342072,256.882019 
	C431.207489,255.106247 430.080139,253.325806 428.936096,251.556152 
	C427.950348,250.031372 426.945618,248.518906 425.875000,246.536926 
	C425.823761,234.379318 425.846771,222.685806 425.869751,210.992279 
z"/>
<path fill="#27BEE8" opacity="1.000000" stroke="none" 
	d="
M397.009857,364.002502 
	C403.366211,363.993744 409.722534,363.985016 416.547424,363.999512 
	C409.875153,373.325500 399.305756,377.850739 389.322876,383.729553 
	C385.739410,381.028870 382.489166,378.256134 379.309692,374.900696 
	C385.256897,370.879456 391.133362,367.440979 397.009857,364.002502 
z"/>
<path fill="#2BC8DF" opacity="1.000000" stroke="none" 
	d="
M425.949249,247.000992 
	C426.945618,248.518906 427.950348,250.031372 428.936096,251.556152 
	C430.080139,253.325806 431.207489,255.106247 432.342072,256.882019 
	C433.564667,255.437698 434.785828,253.992157 436.010773,252.549805 
	C436.415497,252.073257 436.830017,251.604980 437.594116,251.067795 
	C438.011017,260.363129 438.073914,269.723633 438.064087,279.549622 
	C434.197968,279.992401 430.404602,279.969635 426.192108,279.437500 
	C425.831757,268.285736 425.890503,257.643372 425.949249,247.000992 
z"/>
<path fill="#09B2BF" opacity="1.000000" stroke="none" 
	d="
M418.296082,363.460327 
	C418.223816,363.267944 418.380005,363.183716 418.668457,363.206940 
	C418.758423,363.230499 418.482178,363.484619 418.296082,363.460327 
z"/>
<path fill="#0AA7C7" opacity="1.000000" stroke="none" 
	d="
M67.736275,282.094910 
	C67.883202,282.487091 67.654251,282.642700 67.183632,282.469208 
	C67.205597,282.266937 67.345078,282.173004 67.736275,282.094910 
z"/>
<path fill="#EBF8F6" opacity="1.000000" stroke="none" 
	d="
M396.631592,363.927307 
	C391.133362,367.440979 385.256897,370.879456 379.171967,374.583313 
	C359.343506,386.074799 339.717438,397.290253 320.106934,408.532867 
	C313.471802,412.336761 306.928497,416.303253 300.252899,420.033844 
	C272.691895,435.436035 244.396484,437.102661 216.474442,422.038727 
	C187.365753,406.334686 158.981186,389.287903 130.291412,372.808350 
	C125.683640,370.161652 121.135284,367.411530 116.417747,364.428284 
	C118.171974,364.113220 120.067917,364.079102 122.583984,364.367676 
	C137.746063,372.915009 152.288025,381.139618 167.044556,389.619385 
	C176.438583,395.044159 185.618042,400.213776 195.019653,405.634949 
	C197.794922,407.398682 200.276062,409.051941 202.914001,410.397888 
	C212.586792,415.333344 221.878784,421.540741 232.104019,424.762207 
	C255.938339,432.271179 278.884491,428.595245 300.606873,415.462463 
	C304.422028,413.216583 307.860626,411.026733 311.390808,408.996124 
	C325.756226,400.732880 340.149750,392.518433 354.852661,384.204651 
	C366.563568,377.463715 377.954742,370.804077 389.739075,364.083191 
	C391.430725,363.778992 392.729187,363.536011 394.027618,363.293030 
	C394.769501,363.479370 395.511414,363.665741 396.631592,363.927307 
z"/>
<path fill="#EDF9F9" opacity="1.000000" stroke="none" 
	d="
M425.875000,246.536926 
	C425.890503,257.643372 425.831757,268.285736 425.749084,279.383759 
	C424.563690,280.123566 423.402161,280.407715 421.858673,280.208466 
	C421.386688,272.144684 421.296661,264.564301 421.277161,256.521118 
	C421.280304,243.034225 421.212860,230.010147 421.213470,216.524475 
	C421.531586,205.684692 420.438934,195.535934 416.097565,185.573563 
	C411.210571,172.875381 403.188904,162.893036 392.575317,155.193130 
	C385.744598,150.237656 378.261566,146.181320 370.857300,141.468628 
	C345.967804,127.256958 321.399567,113.102325 296.544983,99.469818 
	C289.812958,95.777367 282.214874,93.664001 274.686584,90.605011 
	C259.273895,87.252090 243.993942,87.057114 229.874359,93.116867 
	C215.654633,99.219597 202.364212,107.487709 188.337570,114.885178 
	C180.656754,119.124817 173.263336,123.214722 165.962143,127.463142 
	C151.939011,135.622925 137.968155,143.872574 123.731644,152.135559 
	C123.168221,152.349335 122.971405,152.606415 122.927101,152.944885 
	C122.956985,152.932358 122.906509,152.890045 122.589325,153.003967 
	C110.289055,162.164261 101.808113,173.745102 96.807678,188.303589 
	C95.114937,196.739014 93.640648,204.873688 92.101791,213.472534 
	C92.069405,225.293564 92.101593,236.650467 92.069839,248.471664 
	C91.903366,259.551453 91.800850,270.166901 91.698341,280.782379 
	C90.813057,280.766846 89.927765,280.751312 88.710739,280.704529 
	C88.283653,263.094025 88.188301,245.514771 88.029907,227.470917 
	C87.745438,212.726074 88.632126,198.584946 93.312912,184.516937 
	C98.729485,173.379028 104.315804,162.600616 113.878349,155.055740 
	C121.787415,148.815460 130.643768,143.775818 139.080154,138.203812 
	C140.315170,137.388107 141.548721,136.570251 142.910004,135.435440 
	C146.297852,133.581192 149.710678,132.299911 152.792389,130.463089 
	C164.285980,123.612434 175.656891,116.556183 187.112564,109.641243 
	C188.746170,108.655151 190.593018,108.022339 192.669205,107.073746 
	C198.066879,104.153015 203.218521,101.523727 208.192627,98.593124 
	C236.806580,81.734558 266.211761,78.979332 296.163147,94.452133 
	C310.943756,102.087769 325.106842,110.914711 339.594116,119.123665 
	C349.442963,124.704330 359.369446,130.147964 369.560425,135.721588 
	C374.953918,138.863678 379.908142,142.205322 385.171844,144.954422 
	C395.998810,150.609024 404.457489,158.816498 411.898743,168.730408 
	C419.911835,181.648697 424.856995,195.241364 425.790863,210.589142 
	C425.846771,222.685806 425.823761,234.379318 425.875000,246.536926 
z"/>
<path fill="#0CB2C1" opacity="1.000000" stroke="none" 
	d="
M345.001221,280.984375 
	C346.059387,285.932892 348.721222,287.526703 353.084778,285.168304 
	C356.513641,283.315094 358.385620,284.269745 360.660370,287.006622 
	C362.064758,288.696350 364.480286,290.292358 366.591705,290.515991 
	C374.884338,291.394287 374.906403,291.185822 376.675781,299.779907 
	C376.200470,302.617218 376.033875,304.811798 375.425354,307.004150 
	C372.047424,306.817413 368.973114,307.122986 366.205353,306.342163 
	C361.094330,304.900208 356.163025,302.821198 350.936340,300.673645 
	C349.161255,300.207275 347.606659,300.074860 345.855072,299.925659 
	C345.602936,301.508362 345.406158,302.743500 344.835693,304.030151 
	C341.651398,308.044250 337.868530,306.808655 334.090820,305.574921 
	C333.922333,303.537964 333.829895,301.933441 333.720551,300.035309 
	C331.949860,300.147644 330.551971,300.236328 328.623535,300.358673 
	C328.623535,306.923218 328.623535,313.167236 328.623535,319.804108 
	C324.105865,319.804108 320.137909,319.804077 316.169952,319.804077 
	C312.232361,319.804077 308.294739,319.804108 303.935181,319.804108 
	C303.935181,312.831512 303.935181,306.563965 303.935181,299.703125 
	C301.876221,300.229126 300.367004,300.614685 298.508423,300.953125 
	C296.547363,300.427216 294.730164,299.236359 293.370087,299.628937 
	C291.070251,300.292816 289.059540,301.958252 286.584412,303.068268 
	C276.362366,297.888977 267.006378,298.770813 257.983154,305.089813 
	C252.006607,302.927063 256.667938,297.368500 253.937500,294.011230 
	C250.490417,294.325409 246.877365,295.039795 243.316391,294.837524 
	C241.116058,294.712524 237.361450,295.063904 238.263321,290.647034 
	C239.066742,286.712189 237.379181,286.084930 233.857819,286.791107 
	C231.462997,287.271423 228.893936,286.882935 225.675415,286.882935 
	C226.822479,283.978943 227.411545,282.487640 228.450439,280.989502 
	C231.598862,280.960022 234.297470,280.937347 237.464478,280.936096 
	C273.622345,280.966431 309.311768,280.975403 345.001221,280.984375 
z"/>
<path fill="#2BC8DF" opacity="1.000000" stroke="none" 
	d="
M421.206635,256.983917 
	C421.296661,264.564301 421.386688,272.144684 421.552307,280.152100 
	C404.399811,280.698486 387.171753,280.817841 369.472839,280.524994 
	C369.076569,276.881287 367.726624,274.024048 364.425659,274.230652 
	C359.815430,274.519165 356.286102,272.459778 352.444031,270.711853 
	C339.817993,264.967743 326.252655,263.348297 312.653900,262.065369 
	C309.690674,261.785858 307.436584,261.249115 307.117188,257.607971 
	C311.833435,251.875580 316.400452,246.434174 321.319092,241.049927 
	C322.242035,242.832886 322.708069,244.603607 323.418823,246.269958 
	C323.966400,247.553833 324.603088,249.531311 325.574066,249.788467 
	C334.125000,252.053116 342.704346,254.287338 351.384094,255.968887 
	C361.642059,257.956177 371.980774,259.586823 382.335632,260.996094 
	C391.636841,262.261963 401.008636,263.006622 410.346710,264.005341 
	C414.669067,264.467621 418.323822,264.022644 419.090393,258.606262 
	C419.179260,257.978210 420.472015,257.520569 421.206635,256.983917 
z"/>
<path fill="#29C2E0" opacity="1.000000" stroke="none" 
	d="
M306.967987,257.898926 
	C307.436584,261.249115 309.690674,261.785858 312.653900,262.065369 
	C326.252655,263.348297 339.817993,264.967743 352.444031,270.711853 
	C356.286102,272.459778 359.815430,274.519165 364.425659,274.230652 
	C367.726624,274.024048 369.076569,276.881287 369.005432,280.500061 
	C361.318665,280.917084 353.628418,280.946899 345.469727,280.980530 
	C309.311768,280.975403 273.622345,280.966431 237.465714,280.591858 
	C236.998215,279.533264 236.997910,278.840271 237.395279,278.154297 
	C247.590927,281.024567 257.416016,280.173950 267.238525,278.340759 
	C282.515778,275.489471 295.412323,267.992737 306.967987,257.898926 
z"/>
<path fill="#F0F9FB" opacity="1.000000" stroke="none" 
	d="
M423.353760,303.959839 
	C427.755859,311.845917 426.591705,316.896027 419.396210,321.524353 
	C424.933289,324.081421 428.732452,327.775452 427.853455,334.326233 
	C427.092926,339.993927 423.285553,342.815552 417.900269,344.562439 
	C409.515686,344.804321 401.402710,344.804321 392.393372,344.804321 
	C392.393372,334.022491 392.393372,323.464355 392.304871,312.442322 
	C392.424072,308.198883 392.631714,304.419342 392.875214,299.987701 
	C403.155518,301.374634 413.662262,297.271973 423.353760,303.959839 
M416.227783,324.872742 
	C410.332825,324.513550 404.437897,324.154358 398.257751,323.777771 
	C398.257751,329.588287 398.257751,334.619965 398.257751,339.960693 
	C403.812012,339.960693 409.101135,340.187805 414.359253,339.882050 
	C417.960083,339.672699 421.356506,338.324982 422.059875,334.123505 
	C422.766815,329.900696 421.363586,326.594238 416.227783,324.872742 
M398.788147,305.096649 
	C398.422211,309.891663 398.056274,314.686646 397.640808,320.131165 
	C403.559113,319.843994 408.528046,319.949341 413.388702,319.274841 
	C418.830505,318.519745 420.420288,316.182922 420.112671,311.303040 
	C419.791443,306.207001 416.232788,305.177917 412.171356,305.007996 
	C408.033112,304.834869 403.882111,304.966827 398.788147,305.096649 
z"/>
<path fill="#EDF9F9" opacity="1.000000" stroke="none" 
	d="
M375.867310,307.006378 
	C376.033875,304.811798 376.200470,302.617218 376.682068,300.165466 
	C378.412811,300.044159 379.828583,300.180084 381.773071,300.366730 
	C381.773071,303.377014 381.773071,306.241882 381.866943,309.550964 
	C381.727936,316.624359 381.907593,323.304779 381.093201,329.861694 
	C380.667450,333.289612 378.494385,336.500458 376.638062,340.273102 
	C364.927521,348.830475 352.556488,346.354889 346.513855,334.459961 
	C346.234375,333.392517 346.035156,332.684387 345.868469,331.663788 
	C345.693756,331.012543 345.486481,330.673737 345.427795,329.928040 
	C345.454071,321.006958 345.331726,312.492798 345.209381,303.978607 
	C345.406158,302.743500 345.602936,301.508362 345.855072,299.925659 
	C347.606659,300.074860 349.161255,300.207275 350.869446,301.137695 
	C351.016479,310.591034 350.790802,319.253357 351.066711,327.899719 
	C351.326385,336.036224 356.202362,340.844543 363.376984,340.735260 
	C370.667938,340.624237 375.885864,335.285034 376.011444,327.468628 
	C376.120911,320.650421 375.927094,313.827332 375.867310,307.006378 
z"/>
<path fill="#06A4C4" opacity="1.000000" stroke="none" 
	d="
M153.998779,363.964600 
	C151.986038,363.264496 149.988312,362.516693 147.956512,361.877136 
	C145.736542,361.178375 141.649567,360.751740 141.570435,359.907257 
	C141.256607,356.557770 138.865784,352.543854 143.169403,349.690521 
	C144.152939,349.038452 144.406799,347.285828 145.459564,345.576599 
	C149.738754,345.099365 153.555771,345.131989 157.370682,345.057861 
	C161.129181,344.984833 161.128265,344.937378 159.981201,340.209473 
	C152.768646,340.209473 145.397095,340.209473 137.316971,340.209473 
	C137.316971,326.528748 137.316971,313.451355 137.713959,300.194092 
	C139.846451,299.166168 142.166733,298.197632 141.863815,301.340576 
	C141.250885,307.700012 145.261475,308.779724 150.010452,310.354706 
	C153.193253,311.410278 157.822815,311.721802 158.159729,317.081207 
	C158.245331,318.442902 160.286118,320.756805 161.372284,320.724823 
	C162.943558,320.678467 164.520447,318.966309 165.986298,317.825226 
	C167.042313,317.003174 167.921249,315.953674 168.950592,315.469177 
	C169.022003,325.528809 169.022003,335.124878 169.022003,345.054993 
	C171.075882,344.915100 172.470978,344.820099 174.439484,344.686005 
	C174.439484,332.905640 174.439484,321.455353 174.795685,310.022461 
	C176.435059,313.502960 177.707108,316.970306 179.006424,320.427399 
	C179.604446,322.018555 180.255859,323.589630 180.883072,325.169830 
	C181.506668,324.993256 182.130264,324.816650 182.753845,324.640076 
	C182.839523,322.921509 182.885178,321.199799 183.020447,319.485138 
	C183.213699,317.035858 183.749908,314.835602 187.031433,315.464844 
	C187.110703,325.519287 187.110703,335.110840 187.110703,345.101562 
	C189.263412,344.943512 190.803467,344.830444 192.897552,344.676727 
	C192.897552,333.298828 192.897552,322.354095 192.897552,310.171661 
	C201.682770,321.647400 209.561371,332.097504 217.673706,342.362915 
	C218.877396,343.886078 221.183624,344.537994 224.070938,346.233887 
	C224.070938,332.556885 224.070938,320.780273 224.437744,309.007141 
	C225.801392,309.444702 227.150131,309.606812 227.733093,310.360901 
	C230.043320,313.349396 232.796616,313.266327 235.938797,312.469849 
	C236.006454,323.526184 236.006454,334.118469 236.006454,345.102142 
	C238.226059,344.966217 239.779221,344.871124 241.925629,344.739685 
	C241.925629,333.549286 241.925629,322.771454 242.286102,312.028931 
	C245.740540,313.376648 248.834518,314.689087 251.957397,316.262360 
	C251.934357,316.690308 251.882416,316.857361 251.618149,317.244690 
	C251.350784,317.863861 251.295715,318.262787 251.335876,319.060394 
	C250.621094,332.437195 255.076813,339.754791 266.948700,345.428284 
	C264.980957,352.480713 265.345276,352.936981 272.026733,353.026031 
	C274.636505,353.060822 278.284424,352.373840 279.649994,353.776825 
	C283.388824,357.618134 287.855133,356.225067 292.027222,357.174805 
	C297.834076,358.496735 303.365051,361.030365 308.897705,363.252136 
	C308.573425,363.711975 308.312866,363.886230 307.607941,363.933411 
	C303.632141,363.914581 300.048035,363.966003 296.463837,363.969971 
	C272.307404,363.996735 248.151001,364.013397 223.526367,364.022552 
	C200.038376,363.996063 177.018570,363.980347 153.998779,363.964600 
z"/>
<path fill="#1EB6EB" opacity="1.000000" stroke="none" 
	d="
M153.530396,363.978363 
	C177.018570,363.980347 200.038376,363.996063 223.527039,364.408447 
	C223.740067,369.345551 221.285980,369.369843 217.853546,367.970032 
	C213.462296,366.179169 211.009109,367.208740 210.125183,371.676666 
	C209.302994,375.832611 206.966400,377.089447 203.137512,377.025360 
	C198.243515,376.943420 193.333481,376.868469 188.461227,377.219452 
	C187.450195,377.292267 185.997696,379.122498 185.739243,380.351196 
	C184.771744,384.950775 189.369141,385.207214 191.844925,387.031250 
	C186.470322,393.945770 182.845078,394.378815 177.186630,388.550171 
	C175.359879,386.668457 174.390457,383.969696 172.933167,381.706299 
	C172.378708,380.845154 171.555466,380.157013 170.854736,379.390045 
	C170.245087,380.256897 169.414001,381.044403 169.069336,382.006226 
	C168.205490,384.416840 167.561890,386.906342 166.829956,389.364227 
	C152.288025,381.139618 137.746063,372.915009 122.990028,364.416626 
	C132.871307,364.092621 142.966660,364.042389 153.530396,363.978363 
z"/>
<path fill="#07A2C6" opacity="1.000000" stroke="none" 
	d="
M119.898682,303.552643 
	C123.601242,303.701813 127.303802,303.850983 131.516266,304.464966 
	C131.969345,316.620544 131.912506,328.311310 131.855667,340.002075 
	C129.307800,339.336853 126.759941,338.671600 123.715393,337.654846 
	C122.580826,336.167725 121.942963,335.032104 121.377129,334.024750 
	C111.054230,342.505310 101.698540,342.921509 94.768272,336.056488 
	C88.359581,329.708130 87.846703,317.917999 93.674011,310.901184 
	C100.204437,303.037750 109.722641,302.814911 120.496033,310.360779 
	C122.439339,309.043701 124.584435,307.836212 121.828995,304.873596 
	C121.367493,304.360016 121.028290,304.130188 120.468857,303.864868 
	C120.248627,303.829346 119.898682,303.552643 119.898682,303.552643 
z"/>
<path fill="#EDF9F9" opacity="1.000000" stroke="none" 
	d="
M121.951294,305.157379 
	C124.584435,307.836212 122.439339,309.043701 120.496033,310.360779 
	C109.722641,302.814911 100.204437,303.037750 93.674011,310.901184 
	C87.846703,317.917999 88.359581,329.708130 94.768272,336.056488 
	C101.698540,342.921509 111.054230,342.505310 121.377129,334.024750 
	C121.942963,335.032104 122.580826,336.167725 123.351700,337.654419 
	C116.022720,345.674377 106.982895,347.937103 98.244156,344.323303 
	C88.865852,340.445099 84.126793,332.576324 84.060242,320.435272 
	C85.502991,314.291870 87.208611,308.695496 92.387192,304.575439 
	C101.314758,298.585144 110.214989,298.285950 119.605194,303.436035 
	C119.898682,303.552643 120.248627,303.829346 120.595047,304.151794 
	C121.278076,304.701965 121.614685,304.929688 121.951294,305.157379 
z"/>
<path fill="#EBF8F6" opacity="1.000000" stroke="none" 
	d="
M131.927185,340.441071 
	C131.912506,328.311310 131.969345,316.620544 131.953766,304.466064 
	C132.681961,302.749054 133.482574,301.495758 134.924545,300.239441 
	C136.149597,300.282318 136.733276,300.328125 137.316971,300.373932 
	C137.316971,313.451355 137.316971,326.528748 137.316971,340.209473 
	C145.397095,340.209473 152.768646,340.209473 159.981201,340.209473 
	C161.128265,344.937378 161.129181,344.984833 157.370682,345.057861 
	C153.555771,345.131989 149.738754,345.099365 145.460922,345.190857 
	C140.952271,345.268250 136.905380,345.268250 132.394409,345.268250 
	C132.245255,343.614288 132.121979,342.247192 131.927185,340.441071 
z"/>
<path fill="#0BACC3" opacity="1.000000" stroke="none" 
	d="
M137.713959,300.194092 
	C136.733276,300.328125 136.149597,300.282318 135.283936,300.147705 
	C134.479477,296.786163 133.957001,293.513367 133.374008,289.861603 
	C127.052467,291.193878 129.302521,285.652405 129.469650,281.435059 
	C162.625961,280.991150 195.313278,280.993744 228.000610,280.996338 
	C227.411545,282.487640 226.822479,283.978943 225.675415,286.882935 
	C228.893936,286.882935 231.462997,287.271423 233.857819,286.791107 
	C237.379181,286.084930 239.066742,286.712189 238.263321,290.647034 
	C237.361450,295.063904 241.116058,294.712524 243.316391,294.837524 
	C246.877365,295.039795 250.490417,294.325409 253.937500,294.011230 
	C256.667938,297.368500 252.006607,302.927063 257.820374,305.374329 
	C255.864990,309.321808 253.896744,312.661652 251.928497,316.001495 
	C248.834518,314.689087 245.740540,313.376648 242.196472,311.575256 
	C241.746353,307.499786 241.746353,303.913300 241.746353,299.938538 
	C239.493866,300.074738 237.938736,300.168762 235.871140,300.293762 
	C235.871140,304.459167 235.871140,308.232513 235.871140,312.005829 
	C232.796616,313.266327 230.043320,313.349396 227.733093,310.360901 
	C227.150131,309.606812 225.801392,309.444702 224.356888,308.559662 
	C223.909225,305.498627 223.909225,302.888519 223.909225,300.229004 
	C221.791260,300.229004 220.343201,300.229004 218.134430,300.229004 
	C218.134430,311.527039 218.134430,322.621948 218.134430,334.680328 
	C209.491150,323.356506 201.695145,312.978546 193.660278,302.788940 
	C192.422882,301.219727 190.087204,300.516541 188.259460,299.412842 
	C187.823685,299.808380 187.387924,300.203949 186.952148,300.599487 
	C186.952148,305.400299 186.952148,310.201111 186.952148,315.001923 
	C183.749908,314.835602 183.213699,317.035858 183.020447,319.485138 
	C182.885178,321.199799 182.839523,322.921509 182.753845,324.640076 
	C182.130264,324.816650 181.506668,324.993256 180.883072,325.169830 
	C180.255859,323.589630 179.604446,322.018555 179.006424,320.427399 
	C177.707108,316.970306 176.435059,313.502960 174.698959,309.572083 
	C174.246048,306.183289 174.246048,303.262238 174.246048,300.014069 
	C172.168686,300.147217 170.785339,300.235901 168.879166,300.358124 
	C168.879166,305.464569 168.879166,310.235077 168.879181,315.005615 
	C167.921249,315.953674 167.042313,317.003174 165.986298,317.825226 
	C164.520447,318.966309 162.943558,320.678467 161.372284,320.724823 
	C160.286118,320.756805 158.245331,318.442902 158.159729,317.081207 
	C157.822815,311.721802 153.193253,311.410278 150.010452,310.354706 
	C145.261475,308.779724 141.250885,307.700012 141.863815,301.340576 
	C142.166733,298.197632 139.846451,299.166168 137.713959,300.194092 
z"/>
<path fill="#27BEE8" opacity="1.000000" stroke="none" 
	d="
M228.450439,280.989502 
	C195.313278,280.993744 162.625961,280.991150 129.470230,280.996704 
	C116.891220,280.971161 104.780609,280.937469 92.184174,280.843079 
	C91.800850,270.166901 91.903366,259.551453 92.413483,248.536316 
	C95.138779,252.262939 97.402672,256.493988 102.884872,252.994980 
	C105.577324,259.725250 112.008141,259.689850 116.622604,261.725464 
	C122.839722,264.468079 129.926392,265.182159 136.552963,267.071686 
	C142.099167,268.653107 147.470337,270.849365 153.018387,272.423004 
	C155.813126,273.215729 159.056046,274.118927 161.704208,273.440857 
	C172.318802,270.723053 182.784485,273.389465 193.289230,273.738220 
	C196.781845,273.854126 200.243454,275.386414 203.686859,276.383026 
	C208.307236,277.720306 210.812698,276.053314 210.994339,271.380646 
	C211.039612,270.215668 211.020920,269.048248 211.378540,267.955261 
	C220.149506,271.401489 228.573547,274.774384 236.997589,278.147278 
	C236.997910,278.840271 236.998215,279.533264 236.997314,280.570465 
	C234.297470,280.937347 231.598862,280.960022 228.450439,280.989502 
z"/>
<path fill="#06A6C3" opacity="1.000000" stroke="none" 
	d="
M309.014130,363.045319 
	C303.365051,361.030365 297.834076,358.496735 292.027222,357.174805 
	C287.855133,356.225067 283.388824,357.618134 279.649994,353.776825 
	C278.284424,352.373840 274.636505,353.060822 272.026733,353.026031 
	C265.345276,352.936981 264.980957,352.480713 267.293274,345.393311 
	C268.139313,345.048279 268.589783,345.139252 269.256348,345.431519 
	C269.857086,345.705078 270.241669,345.777344 270.996033,345.720581 
	C279.090027,345.705872 285.859436,343.656738 290.997742,337.000580 
	C289.549652,335.920593 288.274719,334.969727 287.038147,333.657013 
	C289.255249,328.697723 293.250214,328.944580 297.361725,329.530121 
	C297.863251,328.311646 298.338531,327.156860 298.883545,326.465820 
	C298.953247,332.852173 298.953247,338.774689 298.953247,344.995209 
	C300.983582,344.880249 302.378235,344.801270 304.247009,344.695465 
	C304.247009,337.811676 304.247009,331.251953 304.247009,324.486145 
	C312.605896,324.486145 320.467010,324.486145 328.792694,324.486145 
	C328.792694,331.350189 328.792694,337.924316 328.792694,345.337311 
	C330.987762,344.784058 332.574005,344.384216 334.304016,343.895752 
	C334.501434,343.709015 334.625244,343.569458 334.596161,343.520264 
	C334.488068,343.337402 334.329712,343.184235 334.122437,342.593719 
	C334.101807,340.445404 334.148926,338.723297 334.609009,337.000732 
	C338.879333,336.273285 342.736725,335.546265 346.594086,334.819244 
	C352.556488,346.354889 364.927521,348.830475 376.491150,340.563568 
	C376.917328,343.277557 377.079681,346.125244 380.608459,347.076965 
	C380.914825,347.159637 381.407013,347.336792 381.440765,347.533783 
	C382.649750,354.593170 389.386353,356.502991 393.624542,360.735046 
	C394.004547,361.114471 393.888397,361.990753 394.015137,362.964661 
	C392.729187,363.536011 391.430725,363.778992 389.258911,364.026917 
	C361.928375,363.703003 335.471252,363.374146 309.014130,363.045319 
z"/>
<path fill="#19B5E8" opacity="1.000000" stroke="none" 
	d="
M167.044540,389.619385 
	C167.561890,386.906342 168.205490,384.416840 169.069336,382.006226 
	C169.414001,381.044403 170.245087,380.256897 170.854736,379.390045 
	C171.555466,380.157013 172.378708,380.845154 172.933167,381.706299 
	C174.390457,383.969696 175.359879,386.668457 177.186630,388.550171 
	C182.845078,394.378815 186.470322,393.945770 191.844925,387.031250 
	C189.369141,385.207214 184.771744,384.950775 185.739243,380.351196 
	C185.997696,379.122498 187.450195,377.292267 188.461227,377.219452 
	C193.333481,376.868469 198.243515,376.943420 203.137512,377.025360 
	C206.966400,377.089447 209.302994,375.832611 210.125183,371.676666 
	C211.009109,367.208740 213.462296,366.179169 217.853546,367.970032 
	C221.285980,369.369843 223.740067,369.345551 223.995239,364.419189 
	C248.151001,364.013397 272.307404,363.996735 296.463837,363.969971 
	C300.048035,363.966003 303.632141,363.914581 307.567261,364.310333 
	C305.786316,372.212982 311.942291,378.257812 320.187866,376.783661 
	C325.774353,375.784912 333.025909,378.975739 335.862366,383.680786 
	C338.826630,388.597839 340.583374,388.870941 345.949707,386.129608 
	C348.547668,384.802429 351.044556,381.886932 354.532898,384.285980 
	C340.149750,392.518433 325.756226,400.732880 311.390808,408.996124 
	C307.860626,411.026733 304.422028,413.216583 300.401611,415.107422 
	C299.585114,414.718781 299.234650,414.352509 299.042328,414.422272 
	C290.823792,417.403107 283.544922,412.352448 275.776276,411.518372 
	C274.373688,411.367798 272.647491,408.650604 272.157288,406.826355 
	C271.317841,403.702637 271.497131,400.318909 270.909454,397.106445 
	C270.697937,395.950348 269.508148,394.973175 268.934814,393.596375 
	C270.472198,389.932007 267.460876,391.125732 266.541504,391.193390 
	C262.648102,391.479950 260.247437,390.031036 259.173004,386.214600 
	C258.798828,384.885529 257.946930,383.690979 256.523041,380.868896 
	C255.453979,390.104462 250.091705,392.160461 242.035980,391.469666 
	C243.910400,393.125763 244.545914,393.929382 245.373810,394.378052 
	C249.668106,396.705475 251.198975,399.961212 249.206726,404.643921 
	C248.761093,405.691437 248.694717,406.900299 248.222565,408.272400 
	C242.651123,411.565796 237.044189,413.244263 230.815628,411.997314 
	C229.072708,411.648376 227.153900,410.993530 225.540497,411.391052 
	C219.204727,412.952179 213.954407,410.962891 208.832184,407.427094 
	C204.597946,404.504272 200.040070,402.146118 194.797501,405.383423 
	C185.618042,400.213776 176.438583,395.044159 167.044540,389.619385 
M218.282272,395.263245 
	C218.611053,392.411163 218.939835,389.559052 219.236893,386.982117 
	C217.408829,385.620514 214.911819,383.760681 213.166580,382.460785 
	C210.465866,384.118225 207.686829,385.823761 205.612411,387.096863 
	C206.684570,389.543579 208.005249,392.557434 208.902069,394.604034 
	C212.019196,395.012421 215.184769,395.427155 218.282272,395.263245 
M295.370514,390.542999 
	C295.632751,392.491852 295.894989,394.440704 296.013153,395.318817 
	C299.198364,395.553040 301.930817,395.753937 304.469177,395.940582 
	C305.069977,393.501282 305.845123,390.354248 306.491058,387.731689 
	C304.500488,386.525024 302.187744,385.123016 300.221100,383.930817 
	C297.903717,385.201965 295.426086,386.561005 292.345612,388.250702 
	C293.257019,388.890869 294.069244,389.461365 295.370514,390.542999 
z"/>
<path fill="#16B0E9" opacity="1.000000" stroke="none" 
	d="
M268.764771,393.914368 
	C269.508148,394.973175 270.697937,395.950348 270.909454,397.106445 
	C271.497131,400.318909 271.317841,403.702637 272.157288,406.826355 
	C272.647491,408.650604 274.373688,411.367798 275.776276,411.518372 
	C283.544922,412.352448 290.823792,417.403107 299.042328,414.422272 
	C299.234650,414.352509 299.585114,414.718781 300.067139,415.236694 
	C278.884491,428.595245 255.938339,432.271179 232.104019,424.762207 
	C221.878784,421.540741 212.586792,415.333344 202.914001,410.397888 
	C200.276062,409.051941 197.794922,407.398682 195.019653,405.634949 
	C200.040070,402.146118 204.597946,404.504272 208.832184,407.427094 
	C213.954407,410.962891 219.204727,412.952179 225.540497,411.391052 
	C227.153900,410.993530 229.072708,411.648376 230.815628,411.997314 
	C237.044189,413.244263 242.651123,411.565796 248.618408,408.284302 
	C254.102325,404.596649 259.037720,401.941101 264.987549,407.380676 
	C263.796112,401.617065 262.848328,396.656982 268.764771,393.914368 
z"/>
<path fill="#1DB7E8" opacity="1.000000" stroke="none" 
	d="
M354.852661,384.204651 
	C351.044556,381.886932 348.547668,384.802429 345.949707,386.129608 
	C340.583374,388.870941 338.826630,388.597839 335.862366,383.680786 
	C333.025909,378.975739 325.774353,375.784912 320.187866,376.783661 
	C311.942291,378.257812 305.786316,372.212982 307.958893,364.358643 
	C308.312866,363.886230 308.573425,363.711975 308.897705,363.252136 
	C335.471252,363.374146 361.928375,363.703003 388.865692,364.088135 
	C377.954742,370.804077 366.563568,377.463715 354.852661,384.204651 
z"/>
<path fill="#34DBD7" opacity="1.000000" stroke="none" 
	d="
M188.666611,114.807037 
	C202.364212,107.487709 215.654633,99.219597 229.874359,93.116867 
	C243.993942,87.057114 259.273895,87.252090 274.647400,90.999649 
	C271.777985,95.735382 274.857025,102.920593 266.382782,105.485962 
	C270.796631,107.767250 273.753113,109.932999 277.051880,110.807014 
	C279.908752,111.563957 281.247253,112.058945 280.198242,115.272736 
	C279.792297,116.516319 280.374176,118.082321 280.492920,119.360413 
	C278.198639,120.033226 276.182098,120.624611 273.163391,121.509872 
	C274.935577,122.681244 275.535675,123.331604 276.253235,123.510361 
	C280.419342,124.548164 284.673828,125.272583 288.777832,126.504723 
	C291.944366,127.455414 295.021484,128.756271 294.141602,133.332886 
	C293.942932,134.366135 295.308350,136.594498 296.279907,136.811310 
	C302.035614,138.095764 307.872620,139.049347 313.711273,139.919495 
	C319.176971,140.734085 323.453949,138.289154 323.965729,133.569397 
	C328.714966,134.551682 333.371582,135.514786 338.028168,136.477890 
	C337.943451,136.969269 337.858704,137.460632 337.773956,137.951996 
	C335.469879,138.939087 333.165771,139.926178 329.753113,141.388184 
	C340.544098,144.912415 349.757935,148.221420 359.158875,150.865341 
	C363.858887,152.187180 368.888763,152.428467 373.795807,152.856705 
	C375.012329,152.962875 376.331268,151.894958 377.603149,151.366730 
	C376.744171,150.578201 375.989899,149.293655 375.008209,149.086441 
	C370.612457,148.158569 370.902283,144.956390 371.070923,141.721970 
	C378.261566,146.181320 385.744598,150.237656 392.575317,155.193130 
	C403.188904,162.893036 411.210571,172.875381 415.803223,185.788727 
	C414.242584,188.201859 413.273193,191.160446 411.574493,191.665329 
	C406.182587,193.267929 400.527069,194.004669 394.952637,194.954041 
	C393.855133,195.140961 392.656921,194.836609 391.518738,194.667313 
	C385.651215,193.794617 379.788147,192.891922 373.923492,192.000092 
	C371.501740,191.631805 369.079865,191.264511 366.782227,190.539337 
	C369.550995,183.728973 373.051392,177.073624 369.633301,170.184464 
	C367.351227,165.584869 363.329895,161.857620 360.154297,157.688644 
	C358.008606,154.871750 354.977783,153.928452 352.326324,155.802536 
	C350.820190,156.867096 350.031616,159.915543 350.103638,162.030228 
	C350.229492,165.726669 353.200470,166.063568 356.309448,166.015549 
	C357.981598,165.989746 360.436340,166.150360 361.205017,167.201553 
	C363.947998,170.952560 366.246033,175.093323 363.795898,180.049347 
	C358.185425,178.796646 352.984741,177.542816 347.767883,176.360184 
	C342.658844,175.201996 337.524048,174.156799 332.417236,172.989151 
	C325.286133,171.358688 317.509583,173.199402 310.872681,168.586899 
	C312.655975,159.562149 318.477936,156.765274 326.099701,160.217804 
	C327.951599,161.056671 331.383972,160.219391 333.116852,158.887344 
	C334.325012,157.958649 334.866364,153.977661 333.940552,152.949646 
	C332.400604,151.239716 329.499847,150.271622 327.064819,150.016647 
	C325.359009,149.838028 323.539703,151.738083 321.658478,152.068451 
	C313.373749,153.523315 307.777161,157.954025 304.855164,166.054321 
	C299.365112,164.894577 294.290405,163.753662 289.211151,162.633148 
	C281.987640,161.039581 274.739868,159.546906 267.555267,157.794617 
	C266.304321,157.489532 265.281525,156.153702 264.213776,155.224533 
	C263.429230,154.541794 262.743408,153.745682 262.031281,152.596161 
	C264.225708,143.072586 260.822510,134.422028 253.076340,129.384735 
	C244.220413,123.625809 235.134537,124.793358 224.628052,132.958237 
	C221.429764,131.740662 217.947296,128.903519 215.867630,129.705231 
	C210.684433,131.703354 206.241043,134.816727 203.166977,127.283485 
	C203.015137,126.911369 202.387894,126.576996 201.938095,126.506866 
	C197.394211,125.798439 194.879471,122.500519 192.349274,119.167305 
	C191.200577,117.654022 189.898880,116.256874 188.666611,114.807037 
z"/>
<path fill="#30CEDE" opacity="1.000000" stroke="none" 
	d="
M97.026138,188.002869 
	C101.808113,173.745102 110.289055,162.164261 122.613098,153.397812 
	C121.793633,159.187424 123.077469,160.721573 129.385651,161.924118 
	C140.635590,164.068756 151.833008,166.502655 163.110764,168.483170 
	C171.362503,169.932266 179.707748,170.849014 187.881424,172.329544 
	C181.559448,183.620407 177.803757,195.244232 178.129333,208.434418 
	C178.131851,211.567764 178.193420,214.255386 177.908829,217.072495 
	C172.341553,217.453583 166.867218,218.805344 161.963791,217.676743 
	C155.909927,216.283356 150.501907,212.280624 144.502563,210.403214 
	C137.180954,208.112015 129.554871,206.759964 122.016556,205.216263 
	C119.862495,204.775146 117.214661,205.783310 115.387733,204.898880 
	C111.046356,202.797211 107.817162,203.540802 104.461700,206.788818 
	C103.401543,207.815063 101.161438,207.622360 99.245171,208.033936 
	C99.739189,205.029129 101.034271,202.321945 100.205040,201.234146 
	C97.633842,197.861267 98.612793,194.356720 98.509308,190.814301 
	C98.481529,189.863525 97.545326,188.939285 97.026138,188.002869 
z"/>
<path fill="#2EC7E2" opacity="1.000000" stroke="none" 
	d="
M96.807686,188.303589 
	C97.545326,188.939285 98.481529,189.863525 98.509308,190.814301 
	C98.612793,194.356720 97.633842,197.861267 100.205040,201.234146 
	C101.034271,202.321945 99.739189,205.029129 99.245171,208.033936 
	C101.161438,207.622360 103.401543,207.815063 104.461700,206.788818 
	C107.817162,203.540802 111.046356,202.797211 115.387733,204.898880 
	C117.214661,205.783310 119.862495,204.775146 122.016556,205.216263 
	C129.554871,206.759964 137.180954,208.112015 144.502563,210.403214 
	C150.501907,212.280624 155.909927,216.283356 161.963791,217.676743 
	C166.867218,218.805344 172.341553,217.453583 178.126251,217.374222 
	C181.803528,226.333237 184.917221,235.119995 187.877594,244.232468 
	C185.075546,248.218094 182.219879,248.604828 177.843704,246.780304 
	C172.291473,244.465469 166.209946,243.279037 160.250687,242.181259 
	C158.770889,241.908661 156.883148,243.850632 155.182922,244.774658 
	C157.043732,245.591675 159.063263,247.336716 160.735397,247.050690 
	C165.641846,246.211441 168.203384,248.668961 171.321854,252.999985 
	C168.733490,252.999985 167.128387,252.898468 165.539764,253.017242 
	C157.869415,253.590775 150.465408,249.279999 142.888641,251.162338 
	C130.596268,254.216202 120.329262,248.115326 109.491020,244.609818 
	C107.627495,244.007095 106.286453,241.788925 104.744621,240.354721 
	C106.632973,238.205643 107.924232,236.736099 109.746986,234.661682 
	C106.676979,233.831375 104.630745,233.257950 102.573952,232.725281 
	C95.039177,230.773819 94.582779,229.392227 95.499237,221.375656 
	C95.799637,218.747925 93.355431,215.806396 92.166359,213.008377 
	C93.640648,204.873688 95.114937,196.739014 96.807686,188.303589 
z"/>
<path fill="#32D6DA" opacity="1.000000" stroke="none" 
	d="
M188.011307,172.003067 
	C179.707748,170.849014 171.362503,169.932266 163.110764,168.483170 
	C151.833008,166.502655 140.635590,164.068756 129.385651,161.924118 
	C123.077469,160.721573 121.793633,159.187424 122.930283,153.283890 
	C122.906509,152.890045 122.956985,152.932358 123.156296,152.867004 
	C123.649651,152.638336 123.856316,152.399429 123.975616,152.084946 
	C137.968155,143.872574 151.939011,135.622925 165.962143,127.463142 
	C173.263336,123.214722 180.656754,119.124817 188.337570,114.885178 
	C189.898880,116.256874 191.200577,117.654022 192.349274,119.167305 
	C194.879471,122.500519 197.394211,125.798439 201.938095,126.506866 
	C202.387894,126.576996 203.015137,126.911369 203.166977,127.283485 
	C206.241043,134.816727 210.684433,131.703354 215.867630,129.705231 
	C217.947296,128.903519 221.429764,131.740662 224.493073,133.276978 
	C223.185104,137.093521 221.715988,140.582230 220.098526,144.000717 
	C219.542435,145.176025 218.850143,146.749741 217.823105,147.168976 
	C205.237549,152.306168 195.727432,161.060852 188.011307,172.003067 
z"/>
<path fill="#2ECEDB" opacity="1.000000" stroke="none" 
	d="
M421.277161,256.521118 
	C420.472015,257.520569 419.179260,257.978210 419.090393,258.606262 
	C418.323822,264.022644 414.669067,264.467621 410.346710,264.005341 
	C401.008636,263.006622 391.636841,262.261963 382.335632,260.996094 
	C371.980774,259.586823 361.642059,257.956177 351.384094,255.968887 
	C342.704346,254.287338 334.125000,252.053116 325.574066,249.788467 
	C324.603088,249.531311 323.966400,247.553833 323.418823,246.269958 
	C322.708069,244.603607 322.242035,242.832886 321.438446,240.722992 
	C322.522766,238.041016 324.001068,235.819183 325.124054,233.430313 
	C327.937439,227.445557 329.987305,221.755234 338.078033,219.689148 
	C343.281036,218.360474 347.348022,212.583252 351.976257,209.181259 
	C353.304382,212.843964 355.878113,216.195084 350.584839,219.191971 
	C358.843414,222.537720 367.747742,222.312439 373.914062,228.780014 
	C372.899658,230.425354 371.994415,231.893661 371.326660,232.976807 
	C375.158966,235.489044 378.535065,237.913513 382.109802,239.997238 
	C387.814362,243.322433 398.200012,242.335083 401.814423,237.419434 
	C404.642090,233.573776 407.254272,230.660400 413.212036,232.212982 
	C411.055389,223.986588 415.834534,220.323792 421.145447,216.986084 
	C421.212860,230.010147 421.280304,243.034225 421.277161,256.521118 
z"/>
<path fill="#33D5D9" opacity="1.000000" stroke="none" 
	d="
M421.213470,216.524475 
	C415.834534,220.323792 411.055389,223.986588 413.212036,232.212982 
	C407.254272,230.660400 404.642090,233.573776 401.814423,237.419434 
	C398.200012,242.335083 387.814362,243.322433 382.109802,239.997238 
	C378.535065,237.913513 375.158966,235.489044 371.326660,232.976807 
	C371.994415,231.893661 372.899658,230.425354 373.914062,228.780014 
	C367.747742,222.312439 358.843414,222.537720 350.584839,219.191971 
	C355.878113,216.195084 353.304382,212.843964 352.132446,208.899231 
	C357.043732,202.456192 361.850891,196.676483 366.658051,190.896759 
	C369.079865,191.264511 371.501740,191.631805 373.923492,192.000092 
	C379.788147,192.891922 385.651215,193.794617 391.518738,194.667313 
	C392.656921,194.836609 393.855133,195.140961 394.952637,194.954041 
	C400.527069,194.004669 406.182587,193.267929 411.574493,191.665329 
	C413.273193,191.160446 414.242584,188.201859 415.840088,186.151093 
	C420.438934,195.535934 421.531586,205.684692 421.213470,216.524475 
z"/>
<path fill="#2AC3E3" opacity="1.000000" stroke="none" 
	d="
M92.101791,213.472534 
	C93.355431,215.806396 95.799637,218.747925 95.499237,221.375656 
	C94.582779,229.392227 95.039177,230.773819 102.573952,232.725281 
	C104.630745,233.257950 106.676979,233.831375 109.746986,234.661682 
	C107.924232,236.736099 106.632973,238.205643 104.744621,240.354721 
	C106.286453,241.788925 107.627495,244.007095 109.491020,244.609818 
	C120.329262,248.115326 130.596268,254.216202 142.888641,251.162338 
	C150.465408,249.279999 157.869415,253.590775 165.539764,253.017242 
	C167.128387,252.898468 168.733490,252.999985 171.321854,252.999985 
	C168.203384,248.668961 165.641846,246.211441 160.735397,247.050690 
	C159.063263,247.336716 157.043732,245.591675 155.182922,244.774658 
	C156.883148,243.850632 158.770889,241.908661 160.250687,242.181259 
	C166.209946,243.279037 172.291473,244.465469 177.843704,246.780304 
	C182.219879,248.604828 185.075546,248.218094 188.144531,244.440277 
	C194.543289,253.615967 202.078384,261.425140 211.031631,267.881927 
	C211.020920,269.048248 211.039612,270.215668 210.994339,271.380646 
	C210.812698,276.053314 208.307236,277.720306 203.686859,276.383026 
	C200.243454,275.386414 196.781845,273.854126 193.289230,273.738220 
	C182.784485,273.389465 172.318802,270.723053 161.704208,273.440857 
	C159.056046,274.118927 155.813126,273.215729 153.018387,272.423004 
	C147.470337,270.849365 142.099167,268.653107 136.552963,267.071686 
	C129.926392,265.182159 122.839722,264.468079 116.622604,261.725464 
	C112.008141,259.689850 105.577324,259.725250 102.884872,252.994980 
	C97.402672,256.493988 95.138779,252.262939 92.477432,248.072021 
	C92.101593,236.650467 92.069405,225.293564 92.101791,213.472534 
z"/>
<path fill="#37DFD7" opacity="1.000000" stroke="none" 
	d="
M370.857300,141.468628 
	C370.902283,144.956390 370.612457,148.158569 375.008209,149.086441 
	C375.989899,149.293655 376.744171,150.578201 377.603149,151.366730 
	C376.331268,151.894958 375.012329,152.962875 373.795807,152.856705 
	C368.888763,152.428467 363.858887,152.187180 359.158875,150.865341 
	C349.757935,148.221420 340.544098,144.912415 329.753113,141.388184 
	C333.165771,139.926178 335.469879,138.939087 337.773956,137.951996 
	C337.858704,137.460632 337.943451,136.969269 338.028168,136.477890 
	C333.371582,135.514786 328.714966,134.551682 323.965729,133.569397 
	C323.453949,138.289154 319.176971,140.734085 313.711273,139.919495 
	C307.872620,139.049347 302.035614,138.095764 296.279907,136.811310 
	C295.308350,136.594498 293.942932,134.366135 294.141602,133.332886 
	C295.021484,128.756271 291.944366,127.455414 288.777832,126.504723 
	C284.673828,125.272583 280.419342,124.548164 276.253235,123.510361 
	C275.535675,123.331604 274.935577,122.681244 273.163391,121.509872 
	C276.182098,120.624611 278.198639,120.033226 280.492920,119.360413 
	C280.374176,118.082321 279.792297,116.516319 280.198242,115.272736 
	C281.247253,112.058945 279.908752,111.563957 277.051880,110.807014 
	C273.753113,109.932999 270.796631,107.767250 266.382782,105.485962 
	C274.857025,102.920593 271.777985,95.735382 274.975098,91.220497 
	C282.214874,93.664001 289.812958,95.777367 296.544983,99.469818 
	C321.399567,113.102325 345.967804,127.256958 370.857300,141.468628 
M345.367218,137.987106 
	C344.139679,137.709671 342.912140,137.432236 341.684601,137.154816 
	C341.754028,137.871429 341.823456,138.588058 341.892883,139.304688 
	C343.267731,138.937439 344.642578,138.570190 345.367218,137.987106 
z"/>
<path fill="#30CEDE" opacity="1.000000" stroke="none" 
	d="
M123.731644,152.135559 
	C123.856316,152.399429 123.649651,152.638336 123.126411,152.879547 
	C122.971405,152.606415 123.168221,152.349335 123.731644,152.135559 
z"/>
<path fill="#08ABC4" opacity="1.000000" stroke="none" 
	d="
M298.813843,326.002045 
	C298.338531,327.156860 297.863251,328.311646 297.361725,329.530121 
	C293.250214,328.944580 289.255249,328.697723 286.811676,333.907410 
	C283.467133,336.370789 280.600281,339.036224 277.264587,339.908295 
	C269.662292,341.895813 262.647919,338.690491 259.228119,332.633209 
	C255.258530,325.602051 256.253937,315.324677 261.442780,309.768433 
	C266.293304,304.574432 274.963989,302.982574 281.676636,306.253510 
	C283.730408,307.254333 285.525024,308.787018 287.686523,310.243286 
	C288.679443,309.382019 289.719452,308.479889 290.830597,307.516052 
	C289.357147,305.887787 288.142212,304.545197 286.927246,303.202606 
	C289.059540,301.958252 291.070251,300.292816 293.370087,299.628937 
	C294.730164,299.236359 296.547363,300.427216 298.560181,301.419312 
	C298.912170,309.955719 298.863007,317.978882 298.813843,326.002045 
z"/>
<path fill="#04ACBF" opacity="1.000000" stroke="none" 
	d="
M375.425354,307.004150 
	C375.927094,313.827332 376.120911,320.650421 376.011444,327.468628 
	C375.885864,335.285034 370.667938,340.624237 363.376984,340.735260 
	C356.202362,340.844543 351.326385,336.036224 351.066711,327.899719 
	C350.790802,319.253357 351.016479,310.591034 351.089966,301.471649 
	C356.163025,302.821198 361.094330,304.900208 366.205353,306.342163 
	C368.973114,307.122986 372.047424,306.817413 375.425354,307.004150 
z"/>
<path fill="#F6FBFB" opacity="1.000000" stroke="none" 
	d="
M298.883545,326.465820 
	C298.863007,317.978882 298.912170,309.955719 298.909546,301.466400 
	C300.367004,300.614685 301.876221,300.229126 303.935181,299.703125 
	C303.935181,306.563965 303.935181,312.831512 303.935181,319.804108 
	C308.294739,319.804108 312.232361,319.804077 316.169952,319.804077 
	C320.137909,319.804077 324.105865,319.804108 328.623535,319.804108 
	C328.623535,313.167236 328.623535,306.923218 328.623535,300.358673 
	C330.551971,300.236328 331.949860,300.147644 333.720551,300.035309 
	C333.829895,301.933441 333.922333,303.537964 334.020508,306.038483 
	C334.082855,316.956696 334.139465,326.978943 334.196075,337.001190 
	C334.148926,338.723297 334.101807,340.445404 334.059448,342.833099 
	C334.064178,343.498688 334.160217,343.984406 334.160217,343.984406 
	C332.574005,344.384216 330.987762,344.784058 328.792694,345.337311 
	C328.792694,337.924316 328.792694,331.350189 328.792694,324.486145 
	C320.467010,324.486145 312.605896,324.486145 304.247009,324.486145 
	C304.247009,331.251953 304.247009,337.811676 304.247009,344.695465 
	C302.378235,344.801270 300.983582,344.880249 298.953247,344.995209 
	C298.953247,338.774689 298.953247,332.852173 298.883545,326.465820 
z"/>
<path fill="#EBF8F6" opacity="1.000000" stroke="none" 
	d="
M286.584412,303.068268 
	C288.142212,304.545197 289.357147,305.887787 290.830597,307.516052 
	C289.719452,308.479889 288.679443,309.382019 287.686523,310.243286 
	C285.525024,308.787018 283.730408,307.254333 281.676636,306.253510 
	C274.963989,302.982574 266.293304,304.574432 261.442780,309.768433 
	C256.253937,315.324677 255.258530,325.602051 259.228119,332.633209 
	C262.647919,338.690491 269.662292,341.895813 277.264587,339.908295 
	C280.600281,339.036224 283.467133,336.370789 286.773315,334.269287 
	C288.274719,334.969727 289.549652,335.920593 290.997742,337.000580 
	C285.859436,343.656738 279.090027,345.705872 270.803864,345.478119 
	C269.841339,345.319824 269.440765,345.275024 269.040222,345.230225 
	C268.589783,345.139252 268.139313,345.048279 267.344299,344.992310 
	C255.076813,339.754791 250.621094,332.437195 251.578674,318.858643 
	C251.760986,317.846924 251.795715,317.435699 251.830460,317.024445 
	C251.882416,316.857361 251.934357,316.690308 251.957397,316.262360 
	C253.896744,312.661652 255.864990,309.321808 257.996063,305.697449 
	C267.006378,298.770813 276.362366,297.888977 286.584412,303.068268 
z"/>
<path fill="#04ACBF" opacity="1.000000" stroke="none" 
	d="
M334.609009,337.000732 
	C334.139465,326.978943 334.082855,316.956696 334.096558,306.470886 
	C337.868530,306.808655 341.651398,308.044250 344.835693,304.030151 
	C345.331726,312.492798 345.454071,321.006958 345.397705,330.236603 
	C345.424652,331.293457 345.630280,331.634857 345.835907,331.976257 
	C346.035156,332.684387 346.234375,333.392517 346.513855,334.459961 
	C342.736725,335.546265 338.879333,336.273285 334.609009,337.000732 
z"/>
<path fill="#077D8F" opacity="1.000000" stroke="none" 
	d="
M211.378540,267.955261 
	C202.078384,261.425140 194.543289,253.615967 188.297852,244.114578 
	C184.917221,235.119995 181.803528,226.333237 178.472412,217.244736 
	C178.193420,214.255386 178.131851,211.567764 178.488190,208.444489 
	C180.555634,208.335709 182.205154,208.662613 183.915283,209.421509 
	C184.736343,218.666580 186.000504,227.342712 190.892883,235.405289 
	C195.793427,246.289963 203.113510,254.776901 212.594711,261.309113 
	C228.680801,272.391937 246.558411,276.358398 265.677399,272.726593 
	C280.484436,269.913849 293.629272,263.308777 304.347290,251.867172 
	C312.604492,243.792709 318.743439,234.629776 322.871613,224.198486 
	C323.356659,222.972855 322.895386,220.549927 321.955353,219.715347 
	C315.386597,213.883362 312.550812,206.293777 311.352814,197.937302 
	C312.840179,196.570160 313.976990,195.264908 315.391602,194.138702 
	C317.145325,196.101562 318.546631,197.953995 320.111511,199.655960 
	C324.345337,204.260605 329.597443,207.172440 335.881592,206.820541 
	C349.140564,206.078064 362.271301,193.441544 364.198639,180.079391 
	C366.246033,175.093323 363.947998,170.952560 361.205017,167.201553 
	C360.436340,166.150360 357.981598,165.989746 356.309448,166.015549 
	C353.200470,166.063568 350.229492,165.726669 350.103638,162.030228 
	C350.031616,159.915543 350.820190,156.867096 352.326324,155.802536 
	C354.977783,153.928452 358.008606,154.871750 360.154297,157.688644 
	C363.329895,161.857620 367.351227,165.584869 369.633301,170.184464 
	C373.051392,177.073624 369.550995,183.728973 366.782227,190.539337 
	C361.850891,196.676483 357.043732,202.456192 352.080383,208.517914 
	C347.348022,212.583252 343.281036,218.360474 338.078033,219.689148 
	C329.987305,221.755234 327.937439,227.445557 325.124054,233.430313 
	C324.001068,235.819183 322.522766,238.041016 321.086853,240.665833 
	C316.400452,246.434174 311.833435,251.875580 307.117188,257.607971 
	C295.412323,267.992737 282.515778,275.489471 267.238525,278.340759 
	C257.416016,280.173950 247.590927,281.024567 237.395279,278.154297 
	C228.573547,274.774384 220.149506,271.401489 211.378540,267.955261 
M319.868774,206.700699 
	C319.763458,206.658188 319.658173,206.615677 319.552856,206.573166 
	C319.710388,206.707809 319.867920,206.842438 319.910309,207.709915 
	C324.168060,218.442001 331.742981,220.055893 340.304474,211.889816 
	C340.209167,211.933762 340.113861,211.977692 339.124115,211.886566 
	C332.129303,212.683640 325.883911,210.534668 319.868774,206.700699 
z"/>
<path fill="#09B2BF" opacity="1.000000" stroke="none" 
	d="
M416.632446,324.950439 
	C421.363586,326.594238 422.766815,329.900696 422.059875,334.123505 
	C421.356506,338.324982 417.960083,339.672699 414.359253,339.882050 
	C409.101135,340.187805 403.812012,339.960693 398.257751,339.960693 
	C398.257751,334.619965 398.257751,329.588287 398.257751,323.777771 
	C404.437897,324.154358 410.332825,324.513550 416.632446,324.950439 
z"/>
<path fill="#09B2BF" opacity="1.000000" stroke="none" 
	d="
M399.262421,305.030945 
	C403.882111,304.966827 408.033112,304.834869 412.171356,305.007996 
	C416.232788,305.177917 419.791443,306.207001 420.112671,311.303040 
	C420.420288,316.182922 418.830505,318.519745 413.388702,319.274841 
	C408.528046,319.949341 403.559113,319.843994 397.640808,320.131165 
	C398.056274,314.686646 398.422211,309.891663 399.262421,305.030945 
z"/>
<path fill="#0CB2C1" opacity="1.000000" stroke="none" 
	d="
M345.868469,331.663788 
	C345.630280,331.634857 345.424652,331.293457 345.249084,330.643494 
	C345.486481,330.673737 345.693756,331.012543 345.868469,331.663788 
z"/>
<path fill="#EBF8F6" opacity="1.000000" stroke="none" 
	d="
M187.031433,315.464844 
	C186.952148,310.201111 186.952148,305.400299 186.952148,300.599487 
	C187.387924,300.203949 187.823685,299.808380 188.259460,299.412842 
	C190.087204,300.516541 192.422882,301.219727 193.660278,302.788940 
	C201.695145,312.978546 209.491150,323.356506 218.134430,334.680328 
	C218.134430,322.621948 218.134430,311.527039 218.134430,300.229004 
	C220.343201,300.229004 221.791260,300.229004 223.909225,300.229004 
	C223.909225,302.888519 223.909225,305.498627 223.990082,308.556213 
	C224.070938,320.780273 224.070938,332.556885 224.070938,346.233887 
	C221.183624,344.537994 218.877396,343.886078 217.673706,342.362915 
	C209.561371,332.097504 201.682770,321.647400 192.897552,310.171661 
	C192.897552,322.354095 192.897552,333.298828 192.897552,344.676727 
	C190.803467,344.830444 189.263412,344.943512 187.110703,345.101562 
	C187.110703,335.110840 187.110703,325.519287 187.031433,315.464844 
z"/>
<path fill="#DEF2F3" opacity="1.000000" stroke="none" 
	d="
M235.938797,312.469849 
	C235.871140,308.232513 235.871140,304.459167 235.871140,300.293762 
	C237.938736,300.168762 239.493866,300.074738 241.746353,299.938538 
	C241.746353,303.913300 241.746353,307.499786 241.835999,311.539948 
	C241.925629,322.771454 241.925629,333.549286 241.925629,344.739685 
	C239.779221,344.871124 238.226059,344.966217 236.006454,345.102142 
	C236.006454,334.118469 236.006454,323.526184 235.938797,312.469849 
z"/>
<path fill="#EDF9F9" opacity="1.000000" stroke="none" 
	d="
M168.950592,315.469177 
	C168.879166,310.235077 168.879166,305.464569 168.879166,300.358124 
	C170.785339,300.235901 172.168686,300.147217 174.246048,300.014069 
	C174.246048,303.262238 174.246048,306.183289 174.342773,309.554718 
	C174.439484,321.455353 174.439484,332.905640 174.439484,344.686005 
	C172.470978,344.820099 171.075882,344.915100 169.022003,345.054993 
	C169.022003,335.124878 169.022003,325.528809 168.950592,315.469177 
z"/>
<path fill="#0BACC3" opacity="1.000000" stroke="none" 
	d="
M251.618149,317.244690 
	C251.795715,317.435699 251.760986,317.846924 251.483444,318.459930 
	C251.295715,318.262787 251.350784,317.863861 251.618149,317.244690 
z"/>
<path fill="#0AA7C7" opacity="1.000000" stroke="none" 
	d="
M121.828995,304.873596 
	C121.614685,304.929688 121.278076,304.701965 120.815277,304.187317 
	C121.028290,304.130188 121.367493,304.360016 121.828995,304.873596 
z"/>
<path fill="#0CB2C1" opacity="1.000000" stroke="none" 
	d="
M334.304016,343.895752 
	C334.160217,343.984406 334.064178,343.498688 334.127197,343.259308 
	C334.329712,343.184235 334.488068,343.337402 334.596161,343.520264 
	C334.625244,343.569458 334.501434,343.709015 334.304016,343.895752 
z"/>
<path fill="#06A4C4" opacity="1.000000" stroke="none" 
	d="
M269.256348,345.431519 
	C269.440765,345.275024 269.841339,345.319824 270.434082,345.607117 
	C270.241669,345.777344 269.857086,345.705078 269.256348,345.431519 
z"/>
<path fill="#F2FCFB" opacity="1.000000" stroke="none" 
	d="
M268.934814,393.596375 
	C262.848328,396.656982 263.796112,401.617065 264.987549,407.380676 
	C259.037720,401.941101 254.102325,404.596649 248.849564,408.046783 
	C248.694717,406.900299 248.761093,405.691437 249.206726,404.643921 
	C251.198975,399.961212 249.668106,396.705475 245.373810,394.378052 
	C244.545914,393.929382 243.910400,393.125763 242.035980,391.469666 
	C250.091705,392.160461 255.453979,390.104462 256.523041,380.868896 
	C257.946930,383.690979 258.798828,384.885529 259.173004,386.214600 
	C260.247437,390.031036 262.648102,391.479950 266.541504,391.193390 
	C267.460876,391.125732 270.472198,389.932007 268.934814,393.596375 
z"/>
<path fill="#EBF8F6" opacity="1.000000" stroke="none" 
	d="
M218.316299,395.552551 
	C215.184769,395.427155 212.019196,395.012421 208.902069,394.604034 
	C208.005249,392.557434 206.684570,389.543579 205.612411,387.096863 
	C207.686829,385.823761 210.465866,384.118225 213.166580,382.460785 
	C214.911819,383.760681 217.408829,385.620514 219.236893,386.982117 
	C218.939835,389.559052 218.611053,392.411163 218.316299,395.552551 
z"/>
<path fill="#EBF8F6" opacity="1.000000" stroke="none" 
	d="
M295.126007,390.287415 
	C294.069244,389.461365 293.257019,388.890869 292.345612,388.250702 
	C295.426086,386.561005 297.903717,385.201965 300.221100,383.930817 
	C302.187744,385.123016 304.500488,386.525024 306.491058,387.731689 
	C305.845123,390.354248 305.069977,393.501282 304.469177,395.940582 
	C301.930817,395.753937 299.198364,395.553040 296.013153,395.318817 
	C295.894989,394.440704 295.632751,392.491852 295.126007,390.287415 
z"/>
<path fill="#30D3D9" opacity="1.000000" stroke="none" 
	d="
M262.013580,153.000092 
	C262.743408,153.745682 263.429230,154.541794 264.213776,155.224533 
	C265.281525,156.153702 266.304321,157.489532 267.555267,157.794617 
	C274.739868,159.546906 281.987640,161.039581 289.211151,162.633148 
	C294.290405,163.753662 299.365112,164.894577 304.809937,166.509918 
	C306.137756,174.658737 307.097534,182.324036 307.635803,189.992661 
	C304.448456,190.059402 301.682648,190.122787 298.467957,190.122620 
	C294.389618,190.054199 290.760071,190.049332 286.761292,190.062576 
	C282.638824,192.341324 279.441193,191.303452 275.876740,189.122971 
	C273.453247,187.640427 270.207245,187.496109 267.323212,186.776825 
	C266.550354,186.584061 265.457520,186.757538 265.016907,186.288330 
	C259.387970,180.294220 250.726334,183.907516 244.525635,179.727005 
	C245.399414,181.112427 246.273209,182.497849 247.942993,185.145309 
	C242.389526,184.281601 238.282440,183.189178 234.151581,183.090378 
	C224.091003,182.849701 214.041550,182.938583 204.474350,179.098938 
	C203.752823,178.809372 202.829910,179.021637 201.621445,178.957001 
	C198.488159,177.939514 195.734024,176.965652 193.041748,175.646652 
	C199.822739,165.069092 208.663559,157.440887 220.175644,152.616302 
	C220.988983,154.081619 221.539963,155.083832 222.099686,156.081131 
	C226.418808,163.776779 232.580780,168.291916 241.809448,168.124557 
	C252.283035,167.934601 258.123108,161.838287 262.013580,153.000092 
z"/>
<path fill="#04768C" opacity="1.000000" stroke="none" 
	d="
M262.031281,152.596161 
	C258.123108,161.838287 252.283035,167.934601 241.809448,168.124557 
	C232.580780,168.291916 226.418808,163.776779 222.099686,156.081131 
	C221.539963,155.083832 220.988983,154.081619 220.175644,152.616302 
	C208.663559,157.440887 199.822739,165.069092 192.750702,175.838867 
	C187.956360,185.077591 184.124130,193.960083 184.120239,204.412170 
	C183.988693,206.212723 183.921692,207.601120 183.854691,208.989502 
	C182.205154,208.662613 180.555634,208.335709 178.547256,207.998749 
	C177.803757,195.244232 181.559448,183.620407 187.881424,172.329544 
	C195.727432,161.060852 205.237549,152.306168 217.823105,147.168976 
	C218.850143,146.749741 219.542435,145.176025 220.098526,144.000717 
	C221.715988,140.582230 223.185104,137.093521 224.847382,133.313629 
	C235.134537,124.793358 244.220413,123.625809 253.076340,129.384735 
	C260.822510,134.422028 264.225708,143.072586 262.031281,152.596161 
M252.331131,157.836456 
	C257.882812,150.114517 258.343323,144.803162 254.042191,138.101807 
	C250.669144,132.846451 243.357315,130.379150 236.749847,132.266678 
	C230.907791,133.935547 226.739914,139.014648 226.519913,146.268890 
	C228.415314,144.548721 229.603531,143.632065 230.592926,142.535934 
	C232.230118,140.722137 233.405258,138.273315 235.366699,137.012192 
	C240.624985,133.631332 248.077560,135.450928 251.201645,140.439514 
	C254.500305,145.706940 253.241638,153.289581 248.516769,156.614075 
	C242.971176,160.516052 235.854050,159.246017 231.753784,153.724640 
	C230.737228,152.355713 229.402237,151.223267 228.213623,149.982117 
	C227.801788,150.332932 227.389969,150.683762 226.978134,151.034592 
	C227.163986,155.425385 229.964172,158.283783 233.685776,160.220184 
	C240.036880,163.524719 246.177475,162.986404 252.331131,157.836456 
M243.565109,143.982483 
	C241.836014,144.247086 239.529312,143.954849 238.564194,144.955978 
	C237.818619,145.729355 238.256866,148.487534 239.119522,149.669327 
	C239.688385,150.448654 243.017273,150.497406 243.246872,150.004791 
	C244.001968,148.384583 243.907318,146.368347 243.565109,143.982483 
z"/>
<path fill="#31D7D7" opacity="1.000000" stroke="none" 
	d="
M363.795898,180.049347 
	C362.271301,193.441544 349.140564,206.078064 335.881592,206.820541 
	C329.597443,207.172440 324.345337,204.260605 320.111511,199.655960 
	C318.546631,197.953995 317.145325,196.101562 315.323608,193.766296 
	C312.567413,185.310974 309.373169,177.540115 310.864685,168.974167 
	C317.509583,173.199402 325.286133,171.358688 332.417236,172.989151 
	C337.524048,174.156799 342.658844,175.201996 347.767883,176.360184 
	C352.984741,177.542816 358.185425,178.796646 363.795898,180.049347 
z"/>
<path fill="#04768C" opacity="1.000000" stroke="none" 
	d="
M310.872681,168.586899 
	C309.373169,177.540115 312.567413,185.310974 315.045776,193.587250 
	C313.976990,195.264908 312.840179,196.570160 311.104370,197.676331 
	C309.689331,194.981262 308.873322,192.485291 308.057312,189.989319 
	C307.097534,182.324036 306.137756,174.658737 305.223236,166.537842 
	C307.777161,157.954025 313.373749,153.523315 321.658478,152.068451 
	C323.539703,151.738083 325.359009,149.838028 327.064819,150.016647 
	C329.499847,150.271622 332.400604,151.239716 333.940552,152.949646 
	C334.866364,153.977661 334.325012,157.958649 333.116852,158.887344 
	C331.383972,160.219391 327.951599,161.056671 326.099701,160.217804 
	C318.477936,156.765274 312.655975,159.562149 310.872681,168.586899 
z"/>
<path fill="#34DBD7" opacity="1.000000" stroke="none" 
	d="
M345.692322,138.095016 
	C344.642578,138.570190 343.267731,138.937439 341.892883,139.304688 
	C341.823456,138.588058 341.754028,137.871429 341.684601,137.154816 
	C342.912140,137.432236 344.139679,137.709671 345.692322,138.095016 
z"/>
<path fill="#29C2E0" opacity="1.000000" stroke="none" 
	d="
M304.050201,252.016006 
	C293.629272,263.308777 280.484436,269.913849 265.677399,272.726593 
	C246.558411,276.358398 228.680801,272.391937 212.594711,261.309113 
	C203.113510,254.776901 195.793427,246.289963 191.360947,235.388718 
	C194.844482,235.264664 197.927322,235.511627 201.010147,235.758606 
	C200.770172,237.928604 200.192429,240.134644 200.418610,242.254898 
	C200.551376,243.499374 201.832428,245.416733 202.832260,245.578659 
	C204.184006,245.797577 206.157501,244.978531 207.110062,243.923737 
	C207.800369,243.159332 207.828873,240.500122 207.185516,240.041077 
	C203.297989,237.267212 204.340897,232.884659 203.353043,229.229736 
	C203.120117,228.367981 204.438721,227.086868 205.221008,226.302002 
	C206.059860,228.115952 206.688721,229.641785 207.387665,231.134827 
	C215.876816,249.269028 240.559952,252.432953 253.492599,236.955536 
	C255.281357,236.618652 256.706818,236.330200 258.077515,236.493011 
	C258.022705,239.820526 258.022705,242.696762 258.022705,245.829224 
	C261.616852,245.829224 264.451996,246.131973 267.171326,245.702209 
	C268.542908,245.485458 269.704651,243.941132 271.320618,243.033539 
	C274.147614,244.238510 276.131927,247.083466 279.509308,245.228882 
	C279.785614,245.077164 280.755585,246.033783 281.310455,246.571198 
	C283.671722,248.858093 285.590973,248.453979 287.615326,245.751160 
	C291.371704,245.916321 294.685150,246.018219 298.041534,246.463318 
	C300.073029,248.543015 302.061615,250.279510 304.050201,252.016006 
z"/>
<path fill="#2BCBDC" opacity="1.000000" stroke="none" 
	d="
M304.347290,251.867172 
	C302.061615,250.279510 300.073029,248.543015 298.375732,246.186829 
	C298.750275,227.106812 298.833527,208.646500 298.916809,190.186188 
	C301.682648,190.122787 304.448456,190.059402 307.635803,189.992661 
	C308.873322,192.485291 309.689331,194.981262 310.753845,197.738220 
	C312.550812,206.293777 315.386597,213.883362 321.955353,219.715347 
	C322.895386,220.549927 323.356659,222.972855 322.871613,224.198486 
	C318.743439,234.629776 312.604492,243.792709 304.347290,251.867172 
z"/>
<path fill="#2BC8DF" opacity="1.000000" stroke="none" 
	d="
M205.043610,225.998657 
	C204.438721,227.086868 203.120117,228.367981 203.353043,229.229736 
	C204.340897,232.884659 203.297989,237.267212 207.185516,240.041077 
	C207.828873,240.500122 207.800369,243.159332 207.110062,243.923737 
	C206.157501,244.978531 204.184006,245.797577 202.832260,245.578659 
	C201.832428,245.416733 200.551376,243.499374 200.418610,242.254898 
	C200.192429,240.134644 200.770172,237.928604 201.010147,235.758606 
	C197.927322,235.511627 194.844482,235.264664 191.293610,235.034271 
	C186.000504,227.342712 184.736343,218.666580 183.915283,209.421509 
	C183.921692,207.601120 183.988693,206.212723 184.485748,204.419769 
	C186.344940,205.108170 188.682709,205.967117 189.035583,207.337265 
	C190.166626,211.728851 192.975601,212.475647 196.742737,211.986542 
	C198.835800,211.714798 200.914322,211.330917 203.151398,211.236511 
	C203.827621,211.650681 204.351837,211.825912 204.900558,212.405838 
	C204.964584,217.206573 205.004105,221.602631 205.043610,225.998657 
z"/>
<path fill="#30CEDE" opacity="1.000000" stroke="none" 
	d="
M319.986328,207.018387 
	C325.883911,210.534668 332.129303,212.683640 339.562988,211.944351 
	C340.001831,212.002136 339.982544,211.986450 339.982544,211.986450 
	C331.742981,220.055893 324.168060,218.442001 319.957062,207.353210 
	C320.003815,206.996490 319.986328,207.018387 319.986328,207.018387 
z"/>
<path fill="#30CEDE" opacity="1.000000" stroke="none" 
	d="
M340.010193,212.011871 
	C340.113861,211.977692 340.209167,211.933762 340.143494,211.938141 
	C339.982544,211.986450 340.001831,212.002136 340.010193,212.011871 
z"/>
<path fill="#30CEDE" opacity="1.000000" stroke="none" 
	d="
M320.014648,206.986786 
	C319.867920,206.842438 319.710388,206.707809 319.552856,206.573166 
	C319.658173,206.615677 319.763458,206.658188 319.927551,206.859543 
	C319.986328,207.018387 320.003815,206.996490 320.014648,206.986786 
z"/>
<path fill="#F6FBFB" opacity="1.000000" stroke="none" 
	d="
M298.467957,190.122620 
	C298.833527,208.646500 298.750275,227.106812 298.332825,245.843628 
	C294.685150,246.018219 291.371704,245.916321 287.603333,245.306061 
	C287.148407,237.559875 287.148407,230.322037 287.148407,223.245850 
	C281.234314,223.245850 276.160980,223.245850 270.961273,223.245850 
	C270.961273,230.085175 270.961273,236.541122 270.961273,242.997070 
	C269.704651,243.941132 268.542908,245.485458 267.171326,245.702209 
	C264.451996,246.131973 261.616852,245.829224 258.022705,245.829224 
	C258.022705,242.696762 258.022705,239.820526 258.305450,236.402466 
	C258.901917,235.630295 258.980133,235.337112 258.858521,234.740936 
	C258.894257,234.500778 258.774933,234.030045 258.839111,233.563690 
	C258.903259,218.711288 258.903259,204.325256 258.903259,190.218018 
	C263.261566,190.218018 266.668945,190.218018 270.325195,190.218018 
	C270.325195,196.490707 270.376770,202.311234 270.300354,208.130112 
	C270.268860,210.525635 270.894775,211.942871 273.654480,211.800980 
	C277.799591,211.587845 281.954132,211.558075 286.264709,211.517090 
	C286.690399,211.491867 286.795868,211.307831 286.882172,210.579956 
	C287.058960,203.433624 287.094757,196.739059 287.130554,190.044479 
	C290.760071,190.049332 294.389618,190.054199 298.467957,190.122620 
z"/>
<path fill="#2BCEDA" opacity="1.000000" stroke="none" 
	d="
M286.761292,190.062576 
	C287.094757,196.739059 287.058960,203.433624 286.758789,210.621017 
	C286.332336,211.188751 286.202423,211.300919 286.104645,211.450348 
	C281.954132,211.558075 277.799591,211.587845 273.654480,211.800980 
	C270.894775,211.942871 270.268860,210.525635 270.300354,208.130112 
	C270.376770,202.311234 270.325195,196.490707 270.325195,190.218018 
	C266.668945,190.218018 263.261566,190.218018 258.903259,190.218018 
	C258.903259,204.325256 258.903259,218.711288 258.706543,233.659821 
	C258.346283,234.560883 258.450623,234.813812 258.822815,234.981110 
	C258.980133,235.337112 258.901917,235.630295 258.360229,235.951202 
	C256.706818,236.330200 255.281357,236.618652 253.332092,236.655212 
	C250.212601,234.107605 247.616913,231.811890 245.014862,229.125259 
	C245.563171,226.435135 245.491425,223.672546 246.786835,221.921280 
	C251.131500,216.047745 250.859314,211.150665 245.389847,205.293091 
	C247.837875,202.879456 250.087067,200.756195 252.316467,198.651581 
	C247.794907,193.083511 240.169952,189.291916 233.190079,189.048080 
	C219.833038,188.581436 208.184799,196.282181 204.876038,212.001144 
	C204.351837,211.825912 203.827621,211.650681 203.151489,210.801361 
	C202.798492,207.356125 202.597427,204.584976 202.396378,201.813812 
	C202.688889,202.055054 202.981400,202.296295 203.273911,202.537537 
	C207.060135,197.914993 210.846359,193.292465 214.632568,188.669922 
	C214.404938,188.235687 214.177292,187.801453 213.949661,187.367203 
	C207.042221,188.418732 205.936188,181.851761 202.000610,179.000610 
	C202.829910,179.021637 203.752823,178.809372 204.474350,179.098938 
	C214.041550,182.938583 224.091003,182.849701 234.151581,183.090378 
	C238.282440,183.189178 242.389526,184.281601 247.942993,185.145309 
	C246.273209,182.497849 245.399414,181.112427 244.525635,179.727005 
	C250.726334,183.907516 259.387970,180.294220 265.016907,186.288330 
	C265.457520,186.757538 266.550354,186.584061 267.323212,186.776825 
	C270.207245,187.496109 273.453247,187.640427 275.876740,189.122971 
	C279.441193,191.303452 282.638824,192.341324 286.761292,190.062576 
z"/>
<path fill="#2ECEDB" opacity="1.000000" stroke="none" 
	d="
M201.621445,178.957001 
	C205.936188,181.851761 207.042221,188.418732 213.949661,187.367203 
	C214.177292,187.801453 214.404938,188.235687 214.632568,188.669922 
	C210.846359,193.292465 207.060135,197.914993 203.273911,202.537537 
	C202.981400,202.296295 202.688889,202.055054 202.396378,201.813812 
	C202.597427,204.584976 202.798492,207.356125 202.999481,210.562424 
	C200.914322,211.330917 198.835800,211.714798 196.742737,211.986542 
	C192.975601,212.475647 190.166626,211.728851 189.035583,207.337265 
	C188.682709,205.967117 186.344940,205.108170 184.550293,204.007599 
	C184.124130,193.960083 187.956360,185.077591 192.688843,176.184021 
	C195.734024,176.965652 198.488159,177.939514 201.621445,178.957001 
z"/>
<path fill="#30CEDE" opacity="1.000000" stroke="none" 
	d="
M252.068176,158.096954 
	C246.177475,162.986404 240.036880,163.524719 233.685776,160.220184 
	C229.964172,158.283783 227.163986,155.425385 226.978134,151.034592 
	C227.389969,150.683762 227.801788,150.332932 228.213623,149.982117 
	C229.402237,151.223267 230.737228,152.355713 231.753784,153.724640 
	C235.854050,159.246017 242.971176,160.516052 248.516769,156.614075 
	C253.241638,153.289581 254.500305,145.706940 251.201645,140.439514 
	C248.077560,135.450928 240.624985,133.631332 235.366699,137.012192 
	C233.405258,138.273315 232.230118,140.722137 230.592926,142.535934 
	C229.603531,143.632065 228.415314,144.548721 226.519913,146.268890 
	C226.739914,139.014648 230.907791,133.935547 236.749847,132.266678 
	C243.357315,130.379150 250.669144,132.846451 254.042191,138.101807 
	C258.343323,144.803162 257.882812,150.114517 252.068176,158.096954 
z"/>
<path fill="#34D3DB" opacity="1.000000" stroke="none" 
	d="
M243.852097,144.243362 
	C243.907318,146.368347 244.001968,148.384583 243.246872,150.004791 
	C243.017273,150.497406 239.688385,150.448654 239.119522,149.669327 
	C238.256866,148.487534 237.818619,145.729355 238.564194,144.955978 
	C239.529312,143.954849 241.836014,144.247086 243.852097,144.243362 
z"/>
<path fill="#F2FCFB" opacity="1.000000" stroke="none" 
	d="
M204.900558,212.405838 
	C208.184799,196.282181 219.833038,188.581436 233.190079,189.048080 
	C240.169952,189.291916 247.794907,193.083511 252.316467,198.651581 
	C250.087067,200.756195 247.837875,202.879456 245.100616,205.413116 
	C242.929413,204.657028 241.277161,203.442780 239.557968,202.332108 
	C230.752747,196.643585 219.736343,202.593796 217.450226,214.255600 
	C215.907516,222.125183 219.486267,230.293961 225.867004,234.092972 
	C231.232880,237.287766 238.680023,236.315231 243.699142,230.127701 
	C243.973785,229.789154 244.573059,229.713959 245.021240,229.516174 
	C247.616913,231.811890 250.212601,234.107605 252.968796,236.703644 
	C240.559952,252.432953 215.876816,249.269028 207.387665,231.134827 
	C206.688721,229.641785 206.059860,228.115952 205.221024,226.302002 
	C205.004105,221.602631 204.964584,217.206573 204.900558,212.405838 
z"/>
<path fill="#2BCBDC" opacity="1.000000" stroke="none" 
	d="
M271.320618,243.033524 
	C270.961273,236.541122 270.961273,230.085175 270.961273,223.245850 
	C276.160980,223.245850 281.234314,223.245850 287.148407,223.245850 
	C287.148407,230.322037 287.148407,237.559875 287.160400,245.242798 
	C285.590973,248.453979 283.671722,248.858093 281.310455,246.571198 
	C280.755585,246.033783 279.785614,245.077164 279.509308,245.228882 
	C276.131927,247.083466 274.147614,244.238510 271.320618,243.033524 
z"/>
<path fill="#3BE1D6" opacity="1.000000" stroke="none" 
	d="
M286.264709,211.517090 
	C286.202423,211.300919 286.332336,211.188751 286.617798,211.072784 
	C286.795868,211.307831 286.690399,211.491867 286.264709,211.517090 
z"/>
<path fill="#36C9E3" opacity="1.000000" stroke="none" 
	d="
M258.858521,234.740936 
	C258.450623,234.813812 258.346283,234.560883 258.642365,234.126175 
	C258.774933,234.030045 258.894257,234.500778 258.858521,234.740936 
z"/>
<path fill="#30CEDE" opacity="1.000000" stroke="none" 
	d="
M245.014862,229.125275 
	C244.573059,229.713959 243.973785,229.789154 243.699142,230.127701 
	C238.680023,236.315231 231.232880,237.287766 225.867004,234.092972 
	C219.486267,230.293961 215.907516,222.125183 217.450226,214.255600 
	C219.736343,202.593796 230.752747,196.643585 239.557968,202.332108 
	C241.277161,203.442780 242.929413,204.657028 244.901764,205.703476 
	C250.859314,211.150665 251.131500,216.047745 246.786835,221.921280 
	C245.491425,223.672546 245.563171,226.435135 245.014862,229.125275 
z"/>

<!-- <text 
    x="455"                 
    y="450"                 
    font-size="30"           
    fill="white"             
    font-family="Arial, sans-serif"
    text-anchor="middle"    
  >
    ClinicHub
  </text> -->
</svg>